<svg class="img-fluid" id="outputsvg" xmlns="http://www.w3.org/2000/svg" style="transform: matrix(1, 0, 0, 1, 6.5, 1.5); transform-origin: 50% 50% 0px; cursor: move; transition: none;" width="630" height="522" viewBox="0 0 6300 5220"><g id="l4YFt4aM0R2MC86UgllT1BR" fill="rgb(18,22,21)" style="transform: none;"><g><path id="pg3y5KqXR" d="M932 4980 c4 -149 8 -153 158 -160 l110 -5 -91 -120 c-367 -489 -568 -1118 -545 -1710 12 -323 66 -605 169 -880 304 -811 1007 -1426 1867 -1634 354 -85 788 -89 1167 -10 932 193 1695 879 1980 1779 56 178 88 334 108 525 70 675 -118 1375 -512 1902 -83 112 -212 254 -317 351 l-79 72 -2009 0 -2010 0 4 -110z m3862 11 c78 -63 264 -253 343 -351 181 -226 302 -447 409 -748 24 -68 44 -125 44 -128 0 -2 -36 27 -81 65 -228 198 -489 303 -846 342 -154 17 -458 6 -588 -21 -303 -63 -551 -188 -736 -370 -119 -117 -189 -232 -229 -375 -32 -113 -32 -299 0 -400 31 -98 79 -192 134 -264 143 -185 339 -317 606 -407 l125 -42 3 -78 c3 -77 3 -79 47 -126 25 -26 45 -51 45 -55 0 -5 -29 -37 -64 -72 l-65 -64 -36 31 c-20 18 -43 32 -53 32 -9 0 -75 -56 -147 -125 -106 -101 -136 -125 -160 -125 -16 0 -49 -5 -73 -10 -47 -11 -59 -6 -537 210 -99 45 -223 101 -275 125 -52 23 -138 63 -190 87 -52 25 -105 48 -117 52 -13 4 -23 11 -23 16 0 5 109 258 243 562 189 429 254 568 291 618 80 107 117 215 117 343 1 135 -30 222 -121 342 l-50 66 0 130 0 129 75 0 c83 0 136 17 165 52 17 21 19 41 20 205 l0 182 151 3 151 3 24 28 c21 25 24 38 24 108 l0 79 656 0 656 0 62 -49z m-1866 -328 l-3 -128 -742 -3 -742 -2 -7 45 c-3 25 -3 84 1 130 l7 85 744 0 745 0 -3 -127z m-1619 -237 c28 -34 68 -46 151 -46 l80 0 0 -183 0 -184 74 -99 c41 -54 113 -148 161 -209 48 -60 105 -134 127 -163 l41 -53 -18 -62 c-9 -34 -25 -89 -35 -122 -10 -33 -25 -87 -34 -120 -9 -33 -37 -132 -63 -220 -25 -88 -52 -182 -60 -210 -7 -27 -19 -70 -27 -95 -8 -25 -23 -76 -35 -115 -11 -38 -36 -123 -56 -188 -22 -74 -44 -130 -60 -149 -62 -73 -105 -196 -105 -298 0 -128 50 -242 149 -341 103 -103 219 -147 356 -136 38 3 92 13 119 23 47 16 50 16 100 -4 41 -16 573 -213 726 -268 101 -37 272 -97 325 -115 33 -11 101 -39 150 -62 88 -41 93 -42 195 -42 99 0 110 2 172 33 83 41 158 120 187 197 12 31 21 66 21 79 0 23 60 85 207 215 39 34 74 70 78 79 3 9 -6 32 -24 57 l-30 42 70 69 c64 63 71 67 83 52 7 -10 30 -31 50 -47 40 -32 33 -31 303 -15 l93 6 107 110 c60 60 113 119 119 131 17 33 27 306 13 323 -15 18 -18 16 66 44 166 54 378 184 503 307 l80 79 -5 -40 c-34 -288 -177 -673 -350 -940 -417 -648 -1049 -1041 -1820 -1132 -172 -20 -512 -15 -668 10 -528 86 -1001 330 -1378 711 -269 271 -460 586 -586 964 -38 112 -63 221 -92 402 -30 183 -33 552 -5 704 87 477 212 786 461 1140 l60 85 5 -93 c3 -60 10 -100 19 -111z m1341 -96 c0 -19 -7 -20 -129 -20 -237 0 -354 -42 -486 -174 -83 -83 -113 -132 -144 -235 l-17 -54 -92 115 -92 116 0 136 0 136 480 0 c473 0 480 0 480 -20z m-121 -249 c82 -25 138 -60 194 -120 71 -76 100 -147 100 -249 0 -75 -3 -89 -37 -156 -44 -89 -104 -147 -201 -194 -117 -58 -201 -60 -300 -10 -105 54 -175 137 -216 255 -54 157 20 341 174 433 104 61 183 73 286 41z m2064 -58 c-13 -2 -33 -2 -45 0 -13 2 -3 4 22 4 25 0 35 -2 23 -4z m122 -36 c104 -16 213 -45 317 -82 40 -15 83 -29 96 -32 12 -3 22 -9 22 -13 0 -5 9 -11 20 -15 57 -18 301 -202 326 -246 14 -25 88 -133 95 -139 12 -10 58 -157 70 -223 21 -111 -13 -233 -97 -352 -147 -210 -422 -381 -714 -445 -30 -6 -71 -16 -90 -21 -19 -6 -120 -13 -224 -16 -183 -6 -188 -5 -178 13 6 10 24 32 41 48 l31 30 0 -33 0 -33 108 6 c150 9 291 27 298 37 3 5 17 9 30 9 74 0 266 87 419 190 129 86 198 161 254 276 l44 89 1 125 c1 80 -4 141 -13 170 -7 25 -20 66 -28 91 -20 68 -68 128 -161 205 -135 112 -164 133 -222 161 -54 26 -216 73 -252 73 -10 0 -85 16 -166 36 -120 29 -173 37 -287 41 -217 9 -285 -4 -580 -107 -140 -49 -161 -60 -277 -152 -210 -166 -272 -282 -272 -508 -1 -134 21 -217 79 -305 47 -71 86 -102 324 -257 62 -40 163 -78 211 -78 28 0 30 -2 24 -27 -4 -16 -8 -30 -10 -31 -4 -5 -98 30 -179 67 -169 77 -339 208 -417 323 -47 67 -102 194 -119 271 -11 52 -10 68 6 135 10 43 38 120 63 172 39 84 56 106 141 191 141 139 263 215 461 282 260 90 541 115 805 74z m-127 -197 c19 -10 143 -36 242 -51 36 -6 74 -14 85 -19 11 -4 40 -13 65 -20 62 -17 114 -44 190 -100 84 -62 212 -194 237 -245 77 -153 45 -321 -83 -445 -40 -39 -50 -45 -33 -22 19 27 25 49 27 112 5 99 -11 125 -100 166 -55 25 -75 28 -153 28 -49 0 -107 -5 -127 -12 -111 -39 -154 -208 -75 -296 55 -60 98 -76 207 -76 72 0 105 5 138 20 23 10 42 17 42 15 0 -2 -30 -27 -67 -55 -90 -68 -248 -143 -358 -169 -49 -12 -106 -26 -125 -31 -19 -5 -60 -12 -90 -15 -30 -3 -71 -8 -90 -11 l-35 -6 28 29 c21 23 27 39 27 75 0 39 -5 50 -27 68 -26 21 -36 22 -143 18 -165 -7 -216 -26 -291 -105 -53 -57 -59 -61 -59 -39 0 34 -30 60 -98 85 -68 25 -120 55 -240 138 -93 64 -151 122 -182 184 -20 39 -51 159 -44 170 2 4 8 30 14 57 12 63 60 166 99 212 l30 35 -20 -40 c-16 -32 -20 -53 -16 -107 5 -81 20 -106 84 -144 45 -27 54 -29 164 -29 111 0 117 1 165 30 29 18 56 45 66 65 23 45 23 126 0 171 l-18 35 38 -18 c21 -10 59 -18 88 -18 l50 0 0 -33 c0 -44 24 -65 83 -73 l47 -7 -25 -28 c-30 -37 -42 -108 -25 -162 30 -103 94 -137 256 -137 91 0 114 3 152 22 66 34 92 78 92 158 0 90 -21 128 -90 163 -53 27 -60 28 -178 25 l-122 -3 0 41 c0 60 -23 77 -99 72 l-61 -3 0 57 c0 50 -4 62 -30 92 -48 54 -106 78 -182 74 l-63 -3 -3 -62 c-2 -42 2 -72 13 -92 l15 -30 -38 16 c-47 20 -183 28 -242 15 l-44 -11 54 49 c58 52 192 124 250 135 19 3 44 10 55 15 19 8 123 40 205 62 96 27 324 32 368 8z m-723 -403 c22 -12 41 -29 43 -38 3 -17 -65 -59 -97 -59 -28 0 -71 22 -94 48 -18 20 -18 21 5 35 71 44 87 46 143 14z m-1773 -143 c41 -34 112 -69 181 -89 44 -13 87 -16 178 -13 77 2 118 -1 115 -7 -2 -5 -63 -145 -136 -310 -73 -165 -144 -327 -158 -360 -14 -33 -29 -64 -33 -69 -4 -5 -22 0 -41 12 -71 43 -132 54 -264 51 -68 -2 -124 -2 -124 1 0 2 20 70 44 150 24 80 69 233 100 340 56 192 83 283 91 308 6 17 13 15 47 -14z m2537 -58 c16 -18 8 -32 -28 -50 -27 -14 -27 -14 -23 19 2 18 -1 43 -8 54 -11 22 -11 22 18 7 15 -8 34 -22 41 -30z m-1192 -33 c-3 -10 -5 -2 -5 17 0 19 2 27 5 18 2 -10 2 -26 0 -35z m1709 -114 c41 -25 43 -41 8 -68 -39 -31 -84 -36 -129 -14 -58 27 -66 49 -32 79 37 31 105 33 153 3z m-984 -726 c-2 -62 -8 -110 -13 -107 -13 8 -11 181 2 206 6 11 12 18 13 16 1 -1 0 -54 -2 -115z m633 -166 l-76 -82 -102 -6 -102 -7 -92 92 c-51 50 -93 93 -93 96 0 3 35 3 77 2 82 -4 363 14 423 27 32 6 35 5 38 -16 3 -18 -16 -44 -73 -106z m-2813 73 c147 -45 250 -164 265 -307 5 -43 1 -62 -25 -117 -49 -105 -136 -176 -254 -207 -41 -11 -55 -10 -105 5 -81 26 -135 60 -178 111 -85 104 -102 210 -51 321 36 81 114 157 192 189 72 30 76 30 156 5z m618 -335 c89 -41 163 -75 165 -75 2 0 46 -20 97 -44 51 -24 157 -71 236 -106 78 -34 142 -64 142 -66 0 -2 -11 -20 -25 -40 -34 -51 -46 -95 -52 -196 -3 -49 -9 -88 -14 -88 -7 0 -706 255 -811 295 -17 7 -17 9 1 34 60 85 91 183 91 289 0 39 2 72 4 72 3 0 77 -34 166 -75z m2100 11 c-18 -16 -216 -31 -224 -17 -4 5 31 12 76 15 95 7 151 12 158 14 2 1 -2 -4 -10 -12z m-762 -229 l72 -73 -31 -27 c-17 -15 -34 -27 -38 -27 -3 0 -17 16 -30 35 -20 29 -50 57 -110 102 -5 4 50 63 59 63 3 0 38 -33 78 -73z m-284 -137 c125 -59 174 -179 114 -281 -34 -58 -63 -83 -123 -110 -61 -27 -109 -28 -160 -1 -170 87 -173 297 -6 384 64 34 115 36 175 8z"></path><path id="pt6SpL8lL" d="M2325 3921 c-85 -38 -120 -114 -113 -241 9 -148 74 -210 221 -210 90 0 132 13 175 54 55 52 78 175 51 281 -12 49 -58 101 -106 121 -48 21 -179 18 -228 -5z"></path><path id="pNAFkQO1W" d="M4445 3747 c-42 -20 -84 -65 -106 -112 -19 -41 -24 -101 -11 -122 13 -21 61 -33 130 -33 123 1 169 20 230 99 42 55 45 116 7 151 -21 20 -37 23 -122 27 -69 2 -107 -1 -128 -10z"></path><path id="pPqcQY6ut" d="M4828 3641 c-44 -14 -96 -50 -118 -81 -15 -21 -20 -44 -20 -95 0 -76 14 -109 64 -153 46 -40 91 -52 202 -52 77 0 98 4 142 26 73 36 92 71 92 172 0 72 -3 84 -26 112 -46 54 -97 73 -209 76 -55 2 -112 0 -127 -5z m171 -141 c35 -17 51 -36 51 -61 0 -19 -66 -49 -106 -49 -49 0 -109 36 -109 65 0 14 15 27 45 43 54 27 70 27 119 2z"></path><path id="pHIkOdcfi" d="M5211 3339 c-25 -27 -28 -85 -5 -117 12 -18 25 -22 70 -22 76 0 96 21 92 98 l-3 57 -67 3 c-58 3 -69 0 -87 -19z"></path><path id="pFvoFOHbC" d="M4082 3234 c-18 -12 -22 -25 -22 -68 0 -28 5 -57 12 -64 13 -13 116 -16 135 -4 22 14 28 98 9 127 -14 21 -24 25 -64 25 -27 0 -57 -7 -70 -16z"></path><path id="pbiq546hz" d="M3566 3119 c-24 -19 -27 -27 -24 -78 l3 -56 70 1 c39 1 82 6 98 12 24 10 27 16 27 61 0 41 -4 51 -25 65 -36 24 -116 21 -149 -5z"></path><path id="p11V0VlZLW" d="M3887 3080 c-51 -9 -106 -45 -133 -86 -12 -18 -15 -42 -12 -96 4 -84 27 -125 87 -154 20 -9 44 -21 53 -25 10 -5 63 -9 118 -9 80 0 109 4 139 20 79 40 112 113 96 212 -10 57 -71 118 -138 136 -52 13 -136 14 -210 2z m181 -152 c39 -24 37 -35 -8 -65 -52 -36 -117 -26 -163 25 -16 17 -16 21 -2 32 25 21 89 40 115 34 14 -3 40 -15 58 -26z"></path><path id="ptaGLJ9PK" d="M4332 2924 c-18 -12 -22 -25 -22 -64 0 -64 24 -82 102 -78 l53 3 3 63 c2 38 -2 69 -9 78 -16 19 -99 18 -127 -2z"></path><path id="p5LJ6MUFu" d="M4578 2930 c-33 -20 -17 -155 24 -213 31 -44 110 -77 184 -77 33 0 65 5 72 12 7 7 12 40 12 76 0 132 -68 202 -204 209 -40 2 -78 -1 -88 -7z"></path><path id="px5u3KlrM" d="M1815 2113 c-45 -23 -96 -74 -111 -110 -8 -18 -14 -59 -14 -91 0 -160 96 -251 252 -240 68 5 142 47 172 97 25 42 34 172 16 226 -16 47 -66 104 -107 121 -45 19 -170 17 -208 -3z m137 -180 c25 -23 23 -48 -8 -72 -21 -17 -29 -18 -45 -8 -28 17 -33 44 -15 72 19 29 42 32 68 8z"></path><path id="p5zG0z87U" d="M3491 1483 c-58 -30 -75 -64 -79 -151 -3 -68 -1 -81 20 -112 34 -50 62 -61 145 -58 82 4 116 22 146 79 23 42 19 155 -7 193 -37 57 -160 84 -225 49z"></path></g></g><g id="l4HnqVBaCYq4TFEDkosczH9" fill="rgb(98,81,63)" style="transform: none;"><g><path id="pLdXToxlh" d="M968 4843 c13 -13 28 -23 35 -23 7 0 3 6 -8 12 -11 6 -27 16 -35 22 -9 6 -5 1 8 -11z"></path><path id="phO4cDsMY" d="M1405 4808 c-2 -7 -3 -78 -2 -158 l2 -145 775 0 775 0 3 158 c2 152 2 157 -18 157 -19 0 -20 -6 -20 -140 l0 -140 -740 0 -740 0 0 140 c0 119 -2 140 -15 140 -9 0 -18 -6 -20 -12z"></path><path id="pW5pi1URm" d="M4990 4807 c0 -2 15 -16 33 -33 l32 -29 -29 33 c-28 30 -36 37 -36 29z"></path><path id="pyvJr8oWH" d="M1413 4383 c26 -2 67 -2 90 0 23 2 2 3 -48 3 -49 0 -68 -1 -42 -3z"></path><path id="p2DEKjzdU" d="M2348 4382 c-10 -2 -18 -10 -18 -18 0 -10 14 -14 55 -14 42 0 55 3 55 15 0 8 -6 15 -12 16 -7 0 -24 1 -38 2 -14 2 -33 1 -42 -1z"></path><path id="phsozEvL7" d="M2497 4382 c-9 -2 -17 -10 -17 -18 0 -11 17 -14 80 -14 73 0 80 -2 80 -20 0 -15 -7 -20 -25 -20 -15 0 -25 -6 -25 -14 0 -14 29 -26 68 -26 22 0 23 3 20 57 l-3 57 -81 0 c-44 1 -88 0 -97 -2z"></path><path id="ptWGxOVc6" d="M2863 4383 c20 -2 54 -2 75 0 20 2 3 4 -38 4 -41 0 -58 -2 -37 -4z"></path><path id="p1FM2Ta1QW" d="M2460 4300 c0 -17 7 -20 50 -20 43 0 50 3 50 20 0 17 -7 20 -50 20 -43 0 -50 -3 -50 -20z"></path><path id="pmqk5TufQ" d="M2330 4303 c-43 -7 -170 -55 -170 -64 0 -5 -7 -9 -15 -9 -9 0 -27 -11 -41 -25 -14 -14 -28 -25 -32 -25 -15 0 -82 -76 -82 -93 0 -9 -7 -17 -15 -17 -9 0 -21 -12 -28 -27 -6 -16 -14 -30 -17 -33 -14 -14 -41 -87 -47 -128 -5 -39 -7 -42 -15 -23 -4 13 -17 25 -28 28 -11 3 -20 14 -20 25 0 11 -9 22 -20 25 -11 3 -20 14 -20 25 0 11 -9 22 -20 25 -11 3 -20 14 -20 24 0 11 -6 22 -14 25 -8 3 -16 14 -19 25 -6 24 -47 26 -47 3 0 -9 53 -82 117 -163 l117 -146 18 76 c23 105 62 181 126 250 98 106 200 164 335 189 38 8 57 16 57 26 0 14 -40 17 -100 7z"></path><path id="p19z86QOMN" d="M5375 4280 c9 -16 18 -30 21 -30 2 0 -2 14 -11 30 -9 17 -18 30 -21 30 -2 0 2 -13 11 -30z"></path><path id="p3AVI6LnZ" d="M2801 4134 c0 -11 11 -31 27 -45 l27 -24 -22 25 c-11 14 -23 34 -26 45 -5 19 -5 19 -6 -1z"></path><path id="prLSry0LZ" d="M2298 4111 c-137 -54 -226 -145 -262 -270 -22 -77 -21 -111 4 -111 15 0 20 7 20 29 0 16 10 55 22 88 43 112 207 243 307 243 24 0 31 4 31 20 0 17 -7 20 -37 20 -21 -1 -59 -9 -85 -19z"></path><path id="pMZ2Po9Gg" d="M2440 4111 c0 -15 11 -20 62 -25 35 -4 65 -11 68 -15 3 -4 24 -18 47 -31 52 -31 150 -123 158 -150 3 -11 12 -20 19 -20 10 0 16 -25 21 -85 8 -105 2 -154 -33 -228 -27 -59 -108 -151 -143 -162 -10 -4 -19 -10 -19 -15 0 -5 -13 -11 -30 -15 -16 -4 -30 -10 -30 -15 0 -4 -32 -14 -71 -21 -57 -10 -83 -10 -133 0 -33 7 -63 16 -66 20 -3 4 -20 16 -39 27 -19 10 -53 39 -75 63 -23 24 -46 49 -52 55 -19 19 -64 143 -64 175 0 24 -4 31 -20 31 -27 0 -27 -47 -1 -123 28 -81 66 -141 119 -188 134 -118 292 -138 457 -57 98 47 157 105 202 195 37 74 37 78 37 187 0 99 -3 117 -27 169 -51 109 -146 190 -268 228 -80 25 -119 25 -119 0z"></path><path id="poS2DMx6F" d="M3945 4120 c-13 -5 -14 -9 -5 -9 8 0 24 4 35 9 13 5 14 9 5 9 -8 0 -24 -4 -35 -9z"></path><path id="p1B8c8FYk5" d="M4920 4120 c34 -11 60 -11 35 0 -11 5 -29 8 -40 8 -16 0 -15 -2 5 -8z"></path><path id="p30Ph3jdD" d="M4318 4029 c-30 -17 -20 -29 22 -29 33 0 40 3 40 20 0 22 -32 27 -62 9z"></path><path id="p1FmpVpHS6" d="M4500 4020 c0 -22 12 -24 75 -11 l40 9 -45 2 c-42 2 -43 3 -15 10 28 7 27 8 -12 9 -37 1 -43 -2 -43 -19z"></path><path id="pmDzi8gMm" d="M4228 4023 c-33 -8 -20 -33 17 -33 28 0 35 4 35 20 0 20 -14 23 -52 13z"></path><path id="pK7iptj74" d="M4630 4012 c0 -16 10 -20 62 -26 86 -10 207 -40 314 -77 74 -26 198 -52 156 -33 -6 3 -10 9 -7 14 10 17 -239 100 -312 103 -22 1 -39 5 -37 9 2 3 -20 9 -48 12 -29 4 -70 9 -90 12 -33 5 -38 3 -38 -14z"></path><path id="pNPxoLg1A" d="M4138 4013 c-36 -9 -20 -33 22 -33 33 0 40 3 40 20 0 20 -20 24 -62 13z"></path><path id="pHIQqKYWc" d="M3608 3984 c-38 -20 -36 -28 2 -9 17 9 30 18 30 20 0 7 -1 6 -32 -11z"></path><path id="pTabygNdo" d="M4025 3989 c-130 -31 -405 -146 -405 -170 0 -20 64 -7 137 29 43 20 80 39 83 42 3 3 27 11 55 18 27 7 52 17 55 21 3 4 38 13 78 20 58 10 72 16 70 29 -4 21 -21 23 -73 11z"></path><path id="pQLRjKVaR" d="M2375 3943 c-35 -7 -75 -25 -75 -33 0 -4 -9 -10 -20 -13 -12 -3 -20 -14 -20 -26 0 -12 -6 -21 -14 -21 -39 0 -56 -187 -24 -262 23 -52 65 -96 107 -109 72 -24 231 -13 231 16 0 7 12 15 26 17 15 2 32 12 38 23 6 11 14 22 18 25 14 11 28 62 28 101 0 60 -24 49 -43 -18 -26 -93 -93 -143 -194 -143 -103 0 -177 69 -190 178 -15 129 73 231 200 232 93 0 167 -55 187 -141 8 -32 17 -49 27 -49 13 0 15 10 11 52 -3 29 -11 54 -17 56 -6 2 -11 11 -11 20 0 19 -42 62 -59 62 -6 0 -11 4 -11 10 0 22 -130 38 -195 23z"></path><path id="pr59TRkKR" d="M4198 3933 c-21 -2 -38 -8 -38 -14 0 -5 -12 -9 -27 -9 -32 0 -105 -19 -113 -29 -3 -3 -27 -12 -55 -19 -27 -7 -52 -17 -55 -21 -3 -4 -23 -11 -44 -14 -22 -4 -42 -10 -45 -15 -3 -5 -23 -12 -43 -16 -21 -4 -38 -11 -38 -15 0 -5 -11 -12 -25 -15 -14 -4 -25 -13 -25 -21 0 -8 -9 -15 -20 -15 -13 0 -20 -7 -20 -20 0 -15 -7 -20 -25 -20 -18 0 -25 -5 -25 -20 0 -15 -7 -20 -25 -20 -18 0 -25 -5 -25 -20 0 -14 -7 -20 -23 -20 -29 0 -67 -39 -67 -68 0 -15 -6 -22 -20 -22 -16 0 -20 -7 -20 -36 l0 -36 62 66 c61 67 203 184 268 223 60 36 394 148 470 158 83 11 100 16 100 31 0 14 -33 16 -122 7z"></path><path id="p1DVm6aQne" d="M4470 3925 c0 -14 13 -17 113 -30 42 -6 47 -4 47 13 0 16 -10 20 -52 26 -83 9 -108 8 -108 -9z"></path><path id="pq6w8XrIQ" d="M4640 3896 c0 -16 195 -65 273 -69 26 -1 47 -6 47 -11 0 -4 11 -6 25 -4 13 3 22 2 20 -3 -3 -4 9 -11 27 -14 48 -11 147 -60 195 -98 126 -98 211 -174 238 -213 17 -24 33 -44 38 -44 4 0 7 16 7 35 0 24 -5 35 -15 35 -8 0 -15 9 -15 20 0 11 -6 20 -14 20 -7 0 -16 9 -19 20 -3 12 -14 20 -26 20 -12 0 -21 6 -21 15 0 9 -9 15 -25 15 -17 0 -25 5 -25 18 0 20 -49 72 -68 72 -7 0 -12 5 -12 10 0 6 -7 10 -15 10 -8 0 -15 5 -15 10 0 6 -7 10 -15 10 -8 0 -15 5 -15 10 0 6 -13 10 -30 10 -19 0 -30 5 -30 14 0 15 -21 26 -51 26 -10 0 -19 4 -19 9 0 5 -39 16 -87 26 -49 10 -136 28 -195 41 -123 28 -158 30 -158 10z"></path><path id="pcT8auxXY" d="M1660 3850 c17 -22 34 -40 37 -40 2 0 -10 18 -27 40 -17 22 -34 40 -37 40 -2 0 10 -18 27 -40z"></path><path id="prAPOX1eV" d="M5220 3836 c0 -22 4 -26 30 -26 23 0 30 -4 30 -20 0 -11 7 -20 15 -20 8 0 15 -4 15 -10 0 -5 6 -10 13 -10 7 0 18 -9 25 -20 7 -11 23 -20 37 -20 16 0 25 -6 25 -16 0 -22 71 -94 93 -94 11 0 17 -8 17 -25 0 -14 5 -25 10 -25 6 0 10 -7 10 -15 0 -8 4 -15 9 -15 5 0 12 -11 15 -25 4 -14 11 -25 16 -25 6 0 10 -6 10 -14 0 -8 6 -21 13 -28 13 -13 57 -177 57 -211 0 -10 8 -17 20 -17 14 0 20 7 20 21 0 11 -3 18 -7 16 -5 -3 -9 18 -10 46 -2 61 -50 200 -66 190 -5 -3 -7 -1 -4 4 13 20 -155 244 -171 229 -2 -3 -14 6 -24 20 -19 24 -152 118 -183 130 -11 5 -15 -1 -15 -20z"></path><path id="pZQpAqaOx" d="M4287 3833 c-20 -2 -35 -8 -33 -12 3 -4 -10 -7 -28 -7 -45 0 -226 -56 -219 -68 3 -5 2 -6 -3 -3 -17 10 -108 -14 -180 -49 -40 -18 -107 -63 -149 -99 -43 -37 -88 -73 -102 -82 -53 -35 -124 -172 -137 -265 -6 -43 -5 -48 11 -48 15 0 22 12 31 58 7 32 12 68 12 80 0 12 6 22 14 22 16 0 26 21 26 56 0 17 6 24 18 24 16 0 18 -7 14 -60 -2 -32 -1 -75 2 -95 6 -29 11 -35 31 -35 20 0 25 -5 25 -23 0 -24 33 -47 65 -47 8 0 15 -4 15 -10 0 -5 18 -10 40 -10 49 0 56 25 10 35 -43 10 -119 53 -135 79 -27 41 -29 92 -6 140 26 53 53 72 121 87 34 7 50 16 50 26 0 13 -10 15 -57 10 -32 -3 -59 -11 -61 -17 -5 -15 -22 -12 -22 4 0 9 12 16 28 18 21 2 28 9 30 31 3 23 8 27 34 27 21 0 31 6 35 20 3 13 14 20 29 20 13 0 24 5 24 10 0 6 9 10 19 10 11 0 26 6 34 14 8 8 35 17 60 21 26 4 47 11 47 16 0 5 9 9 20 9 12 0 76 16 143 36 67 20 150 38 185 41 52 5 62 9 62 24 0 20 -12 21 -103 12z"></path><path id="p1EvsyynB3" d="M4430 3820 c0 -19 7 -20 90 -20 50 0 90 4 90 9 0 4 -12 6 -27 4 -19 -3 -24 -2 -15 5 10 6 -1 11 -34 16 -83 11 -104 8 -104 -14z"></path><path id="popC690Kx" d="M5545 3793 c40 -44 55 -52 55 -31 0 6 -3 8 -7 4 -4 -3 -25 11 -47 31 l-41 38 40 -42z"></path><path id="p1EoCTls5c" d="M3526 3760 c-36 -28 -66 -53 -66 -55 0 -3 16 -5 35 -5 24 0 35 5 35 15 0 8 9 15 20 15 11 0 20 7 20 15 0 8 9 15 20 15 15 0 20 7 20 25 0 14 -4 25 -9 25 -4 0 -38 -23 -75 -50z"></path><path id="pCf1UQHZY" d="M4630 3792 c0 -19 28 -27 198 -58 82 -15 122 -12 122 7 0 6 -9 7 -21 4 -13 -5 -19 -3 -15 3 7 11 -128 34 -152 25 -9 -4 -13 -2 -9 4 4 5 -15 15 -44 21 -68 16 -79 15 -79 -6z"></path><path id="pV9tnuDg5" d="M4448 3753 c-10 -2 -18 -9 -18 -14 0 -5 -6 -9 -12 -9 -24 0 -58 -47 -58 -79 0 -17 5 -31 10 -31 6 0 10 4 10 8 0 19 76 83 112 94 71 21 29 50 -44 31z"></path><path id="pLuwnhYsg" d="M4570 3745 c0 -9 14 -17 38 -21 45 -8 84 -41 80 -68 -4 -25 -74 -104 -108 -121 -14 -7 -42 -15 -62 -19 -49 -9 -52 -36 -5 -36 42 0 107 18 107 30 0 6 6 10 13 10 14 0 47 35 47 50 0 6 5 10 10 10 6 0 10 6 10 14 0 8 5 16 12 18 9 3 9 20 2 64 -8 54 -11 59 -36 62 -16 2 -28 8 -28 13 0 5 -18 9 -40 9 -28 0 -40 -4 -40 -15z"></path><path id="pfZy7I1Y8" d="M1770 3710 c17 -22 34 -40 37 -40 2 0 -10 18 -27 40 -17 22 -34 40 -37 40 -2 0 10 -18 27 -40z"></path><path id="pr5cXBaCo" d="M4960 3724 c0 -14 16 -25 59 -41 32 -13 63 -23 70 -23 6 0 11 -4 11 -10 0 -5 7 -10 15 -10 8 0 15 -4 15 -10 0 -5 9 -10 20 -10 11 0 20 -7 20 -15 0 -8 8 -15 19 -15 10 0 21 -9 24 -20 4 -15 14 -20 42 -20 47 0 40 9 -55 80 -71 53 -155 96 -208 106 -27 5 -32 4 -32 -12z"></path><path id="p17bAV3hZT" d="M3946 3674 c-10 -25 -7 -94 4 -94 6 0 10 -13 10 -30 0 -27 3 -30 30 -30 23 0 30 -5 30 -19 0 -14 -5 -18 -20 -14 -11 3 -20 9 -20 14 0 5 -11 9 -24 9 -13 0 -26 5 -28 12 -2 6 -30 13 -61 16 -47 4 -57 2 -57 -11 0 -10 16 -19 50 -26 92 -20 151 -67 165 -131 4 -18 13 -30 22 -30 13 0 15 9 10 47 -3 26 -10 49 -16 51 -16 5 -13 22 4 22 8 0 15 -4 15 -10 0 -5 16 -10 35 -10 26 0 33 4 29 15 -3 8 -16 17 -27 21 -35 10 -86 52 -102 84 -22 43 -20 91 5 97 11 3 20 12 20 19 0 20 -66 19 -74 -2z"></path><path id="pjnlzpBH1" d="M4030 3677 c0 -8 12 -18 28 -22 15 -3 44 -17 65 -31 l37 -24 0 30 c0 19 -5 30 -14 30 -8 0 -16 5 -18 11 -2 6 -25 13 -51 16 -38 5 -47 3 -47 -10z"></path><path id="pQeZzzglk" d="M4840 3630 c0 -21 10 -24 48 -14 36 10 27 34 -13 34 -28 0 -35 -4 -35 -20z"></path><path id="pSzVzMxLS" d="M4960 3636 c0 -7 10 -16 23 -20 41 -11 57 -7 57 14 0 17 -7 20 -40 20 -27 0 -40 -4 -40 -14z"></path><path id="prtAarlVV" d="M5802 3635 c0 -11 3 -29 8 -40 11 -25 11 1 0 35 -6 20 -8 21 -8 5z"></path><path id="pvCn4xlXE" d="M3341 3580 c-43 -58 -108 -197 -113 -241 -1 -19 -6 -36 -10 -39 -4 -3 -10 -25 -14 -48 -6 -38 -5 -42 14 -42 17 0 21 9 27 50 4 27 4 54 0 60 -3 5 1 10 9 10 12 0 16 10 16 40 0 29 4 40 15 40 10 0 15 10 15 30 0 20 5 30 15 30 8 0 17 11 21 25 3 14 10 25 15 25 5 0 9 6 9 14 0 8 5 16 11 18 6 2 9 19 7 38 l-3 35 -34 -45z"></path><path id="pCdvZpehz" d="M5050 3611 c0 -5 16 -18 35 -30 l35 -20 0 29 c0 28 -3 30 -35 30 -19 0 -35 -4 -35 -9z"></path><path id="pEeMpizcD" d="M4320 3564 c0 -58 25 -84 82 -84 51 0 50 23 -1 39 -44 13 -55 30 -41 66 9 22 7 25 -15 25 -23 0 -25 -4 -25 -46z"></path><path id="pnxyCEptW" d="M4750 3585 c0 -20 -5 -25 -25 -25 -20 0 -25 -5 -25 -25 0 -14 -4 -25 -10 -25 -5 0 -10 -20 -10 -45 0 -25 5 -45 10 -45 6 0 10 -13 10 -30 0 -16 3 -30 8 -30 4 0 12 -10 17 -22 6 -13 20 -24 33 -26 12 -2 22 -10 22 -17 0 -31 165 -54 253 -35 31 6 63 18 71 26 8 8 19 14 25 14 6 0 11 7 11 15 0 8 7 15 15 15 10 0 15 11 15 35 0 24 5 35 15 35 12 0 15 13 15 60 0 56 -2 60 -22 60 -22 0 -23 -4 -20 -55 3 -42 -1 -62 -17 -89 -61 -98 -262 -117 -357 -34 -45 40 -64 77 -64 128 0 33 7 47 40 80 22 22 45 40 50 40 6 0 10 5 10 10 0 6 -16 10 -35 10 -31 0 -35 -3 -35 -25z"></path><path id="pu1cmbBHu" d="M4184 3568 c9 -12 16 -39 16 -60 0 -21 5 -38 10 -38 6 0 10 -11 10 -25 0 -14 -5 -25 -11 -25 -6 0 -9 -16 -7 -37 2 -29 8 -39 23 -42 11 -2 23 -8 26 -13 10 -16 119 0 119 18 0 8 7 14 15 14 10 0 15 11 15 35 0 31 -3 35 -25 35 -20 0 -25 5 -25 26 0 26 -1 26 -55 22 -54 -5 -55 -4 -55 22 0 15 -3 42 -6 59 -6 26 -11 31 -36 31 -28 0 -29 -1 -14 -22z m158 -145 c25 -22 23 -41 -7 -55 -14 -6 -25 -14 -25 -18 0 -4 -7 -7 -15 -7 -8 0 -12 4 -9 9 3 4 0 8 -7 8 -17 0 -49 30 -49 47 0 31 82 43 112 16z"></path><path id="p17nluCPXA" d="M4853 3530 c-109 -49 -65 -157 71 -174 118 -15 206 68 148 140 -36 46 -122 71 -122 37 1 -11 19 -27 50 -41 28 -13 50 -30 50 -37 0 -17 -46 -54 -78 -62 -33 -8 -94 12 -121 41 l-22 24 28 21 c15 13 40 25 55 28 19 4 28 12 28 24 0 25 -32 24 -87 -1z"></path><path id="pIPpP4toH" d="M5370 3436 c0 -20 4 -36 9 -36 5 0 12 -11 15 -25 4 -14 11 -25 16 -25 6 0 10 -9 10 -20 0 -13 7 -20 20 -20 12 0 20 7 20 18 0 21 -52 113 -74 131 -14 12 -16 9 -16 -23z"></path><path id="pTUWICYUM" d="M3717 3419 c-51 -27 -66 -59 -43 -94 36 -55 126 -87 126 -45 0 15 -7 20 -25 20 -14 0 -25 5 -25 10 0 6 -8 10 -19 10 -12 0 -20 9 -23 23 -4 21 2 26 44 43 32 12 48 24 48 36 0 24 -34 23 -83 -3z"></path><path id="pMPKFszZS" d="M3810 3422 c0 -12 16 -24 50 -37 67 -26 66 -51 -2 -76 -25 -8 -38 -19 -38 -31 0 -52 139 20 140 73 0 19 -34 51 -77 73 -43 21 -73 21 -73 -2z"></path><path id="p1G5WY6mfe" d="M5518 3380 c8 -27 18 -47 22 -45 3 2 6 -11 6 -28 1 -57 14 -107 29 -107 22 0 19 59 -6 152 -19 69 -24 78 -44 78 l-23 0 16 -50z"></path><path id="p19sGWbT20" d="M3350 3356 c0 -19 -4 -36 -10 -38 -5 -1 -12 -33 -16 -70 -6 -58 -5 -68 9 -68 11 0 18 12 22 38 3 20 14 67 24 105 l18 67 -23 0 c-21 0 -24 -5 -24 -34z"></path><path id="pUrIqeDXE" d="M4480 3350 c0 -17 7 -20 50 -20 43 0 50 3 50 20 0 17 -7 20 -50 20 -43 0 -50 -3 -50 -20z"></path><path id="pAActRMfw" d="M4400 3336 c0 -23 2 -24 35 -13 19 6 35 16 35 24 0 8 -13 13 -35 13 -30 0 -35 -3 -35 -24z"></path><path id="pEM7l5RLM" d="M2020 3308 c-7 -24 -18 -63 -25 -88 -8 -25 -39 -133 -70 -240 -31 -107 -83 -282 -116 -389 -33 -107 -57 -196 -55 -199 3 -2 32 5 65 17 121 42 272 22 377 -49 25 -16 49 -30 53 -30 5 0 22 33 39 73 17 39 103 235 190 435 88 199 157 362 153 362 -3 0 -36 -7 -73 -16 -46 -11 -68 -22 -68 -31 0 -11 10 -14 38 -12 l37 4 -158 -360 c-88 -198 -161 -368 -164 -377 -5 -16 -9 -15 -47 6 -83 49 -246 71 -349 47 -36 -9 -37 -8 -31 12 44 136 74 244 74 262 0 13 3 25 8 27 6 3 27 68 94 298 10 36 24 93 30 128 7 34 16 62 20 62 4 0 8 8 8 17 0 14 3 13 16 -5 8 -12 22 -22 30 -22 8 0 14 -4 14 -10 0 -5 5 -10 11 -10 6 0 17 -7 25 -15 9 -8 24 -15 35 -15 10 0 19 -4 19 -9 0 -10 106 -41 143 -41 50 0 29 26 -34 44 -84 23 -147 56 -218 116 l-60 50 -11 -42z"></path><path id="pXakumBCD" d="M2821 3324 c-12 -15 -21 -32 -21 -38 0 -6 6 -2 12 9 6 11 18 28 26 38 8 9 12 17 9 17 -3 0 -15 -12 -26 -26z"></path><path id="p13WOR9Wat" d="M4630 3330 c0 -5 18 -19 40 -30 23 -12 49 -34 59 -50 10 -17 20 -28 22 -25 3 2 2 -19 -1 -48 -7 -64 -30 -100 -81 -129 -46 -26 -50 -38 -10 -38 42 0 61 10 61 31 0 12 7 19 20 19 16 0 20 7 20 35 0 24 5 35 15 35 11 0 15 12 15 44 0 66 -17 106 -46 106 -19 0 -24 5 -24 24 0 13 -7 27 -16 30 -25 9 -74 7 -74 -4z"></path><path id="p1HvQNSdl5" d="M5196 3309 c-13 -66 -9 -79 25 -79 29 0 30 1 15 22 -21 29 -21 31 10 62 l27 26 -35 0 c-32 0 -36 -3 -42 -31z"></path><path id="pa3wavDtC" d="M5852 3300 c0 -19 2 -27 5 -17 2 9 2 25 0 35 -3 9 -5 1 -5 -18z"></path><path id="pF8OBEBWf" d="M4307 3302 c-23 -26 -37 -68 -37 -115 0 -56 9 -87 26 -87 8 0 14 -10 14 -25 0 -20 5 -25 25 -25 18 0 25 -5 25 -19 0 -27 48 -42 153 -48 84 -6 87 -5 87 16 0 19 -5 21 -71 21 -117 0 -187 41 -217 127 -15 45 1 95 43 132 19 17 35 33 35 36 0 13 -69 3 -83 -13z"></path><path id="p81rXckci" d="M5336 3274 c-4 -16 -18 -30 -36 -37 -42 -16 -38 -37 5 -37 24 0 35 5 35 15 0 8 7 15 15 15 10 0 15 11 15 35 0 42 -24 48 -34 9z"></path><path id="pOKkANmpg" d="M1876 3264 c-4 -14 -5 -28 -3 -31 3 -2 8 8 11 23 4 14 5 28 3 31 -3 2 -8 -8 -11 -23z"></path><path id="preT4Bv0M" d="M4467 3255 c-49 -17 -87 -52 -87 -80 0 -27 34 -59 82 -80 94 -39 218 8 218 83 0 39 -91 93 -155 92 -11 -1 -37 -7 -58 -15z m173 -71 c0 -11 -23 -34 -46 -47 -8 -5 -13 7 -15 36 l-4 42 33 -10 c17 -5 32 -15 32 -21z m-100 -4 c8 -16 6 -22 -14 -35 -46 -30 -101 6 -64 43 19 19 66 15 78 -8z"></path><path id="pYbY8YjVD" d="M3963 3237 c-42 -28 -41 -37 2 -37 32 0 35 2 35 30 0 17 -1 30 -2 29 -2 0 -18 -10 -35 -22z"></path><path id="pqFM9rbYe" d="M4090 3221 l0 -28 35 16 c45 21 45 41 0 41 -32 0 -35 -3 -35 -29z"></path><path id="pyrZ8MNvj" d="M4183 3199 c15 -21 12 -59 -7 -71 -22 -15 -66 -8 -78 12 -19 29 -28 24 -28 -15 0 -30 -3 -35 -24 -35 -14 0 -28 -4 -31 -10 -3 -5 1 -10 9 -10 9 0 16 -4 16 -10 0 -5 15 -12 34 -16 19 -3 53 -22 75 -41 72 -61 75 -151 6 -212 -19 -17 -35 -33 -35 -36 0 -4 16 -5 36 -3 24 2 41 10 48 23 6 11 16 23 21 27 14 10 13 177 -1 186 -6 4 -14 15 -17 25 -4 11 -16 21 -27 24 -11 3 -20 9 -20 14 0 5 -9 9 -20 9 -11 0 -20 5 -20 10 0 6 10 10 23 10 38 0 67 12 67 26 0 8 5 14 10 14 6 0 10 23 10 50 0 49 -1 50 -31 50 -28 0 -29 -1 -16 -21z"></path><path id="pviUPH7nV" d="M564 3060 c0 -80 2 -112 3 -72 2 39 2 105 0 145 -1 39 -3 7 -3 -73z"></path><path id="peTrvPKLC" d="M3848 3193 c-36 -9 -20 -33 22 -33 33 0 40 3 40 20 0 20 -20 24 -62 13z"></path><path id="p16M4EQxJG" d="M4958 3193 c-10 -2 -18 -13 -18 -23 0 -14 -9 -20 -37 -22 -33 -3 -38 -7 -41 -30 -2 -16 -9 -28 -16 -28 -8 0 -16 -10 -20 -22 -9 -37 -7 -118 4 -118 6 0 10 -9 10 -21 0 -32 19 -59 40 -59 11 0 20 -7 20 -15 0 -8 12 -18 28 -21 15 -4 30 -12 34 -18 11 -16 210 -15 216 2 2 6 12 12 22 12 13 0 17 -5 13 -20 -3 -11 -14 -20 -24 -20 -11 0 -19 -7 -19 -15 0 -8 -9 -15 -19 -15 -11 0 -26 -6 -33 -14 -8 -7 -24 -17 -36 -20 -12 -4 -22 -11 -22 -15 0 -5 -13 -11 -30 -14 -18 -4 -30 -13 -30 -22 0 -10 -10 -15 -27 -15 -16 0 -63 -11 -106 -25 -43 -14 -89 -25 -102 -25 -14 0 -25 -4 -25 -9 0 -5 -34 -12 -75 -16 -65 -6 -75 -9 -75 -26 0 -27 9 -27 199 15 107 24 179 46 193 59 7 7 22 14 33 15 51 9 189 98 295 191 l35 30 -37 1 c-31 0 -38 -3 -38 -20 0 -14 -6 -20 -22 -19 -13 0 -17 3 -10 6 6 2 12 18 12 34 0 25 4 29 29 29 26 0 30 5 40 44 14 56 14 126 1 126 -5 0 -10 9 -10 20 0 16 -7 20 -31 20 l-30 0 22 -31 c17 -25 20 -40 17 -80 -7 -65 -31 -97 -98 -131 -69 -36 -164 -39 -225 -7 -52 26 -102 82 -107 119 -10 68 45 151 114 172 20 6 35 15 31 21 -4 6 2 8 15 5 25 -7 30 7 6 16 -17 7 -39 6 -66 -1z"></path><path id="pwv0t3fXL" d="M5093 3193 c-23 -9 -14 -25 10 -17 12 3 19 3 15 -1 -6 -6 92 -55 110 -55 1 0 2 11 2 24 0 20 -8 27 -47 40 -47 16 -68 18 -90 9z"></path><path id="pXDjB6TLG" d="M3200 3153 c0 -34 12 -63 26 -63 10 0 14 13 14 40 0 33 -3 40 -20 40 -12 0 -20 -7 -20 -17z"></path><path id="pgOiKdJuI" d="M5556 3138 c-3 -13 -6 -35 -6 -51 0 -15 -19 -67 -42 -114 -54 -110 -129 -192 -248 -269 -49 -33 -90 -62 -90 -66 0 -5 16 -8 35 -8 19 0 35 5 35 10 0 6 7 10 15 10 8 0 15 5 15 10 0 6 7 10 15 10 8 0 15 9 15 20 0 16 7 20 30 20 20 0 30 5 30 15 0 8 8 15 18 15 25 0 72 51 72 78 0 15 6 22 20 22 11 0 20 5 20 11 0 6 7 17 15 26 9 8 19 28 22 44 3 16 9 29 13 29 12 0 30 49 30 80 0 17 5 30 10 30 6 0 10 23 10 50 0 36 -4 50 -14 50 -7 0 -16 -10 -20 -22z"></path><path id="p19xOOFieF" d="M734 3065 c0 -49 1 -71 3 -48 2 23 2 64 0 90 -2 26 -3 8 -3 -42z"></path><path id="p61MLVZMJ" d="M3320 3110 c0 -33 3 -40 20 -40 21 0 25 16 14 58 -11 39 -34 27 -34 -18z"></path><path id="plyybdN06" d="M3598 3143 c-12 -3 -18 -14 -18 -34 0 -25 -4 -29 -26 -29 -26 0 -26 -2 -21 -46 2 -26 11 -51 18 -56 16 -10 96 -4 152 12 33 10 37 14 37 45 0 19 -4 35 -10 35 -5 0 -10 14 -10 30 0 23 -4 30 -20 30 -11 0 -20 5 -20 10 0 10 -49 12 -82 3z m91 -52 c37 -28 24 -54 -36 -70 -29 -7 -59 -11 -67 -8 -25 10 -19 53 10 76 33 26 62 26 93 2z"></path><path id="pzRHiIXNI" d="M5432 3087 c-6 -29 -12 -60 -12 -70 0 -9 -7 -17 -15 -17 -8 0 -15 -6 -15 -14 0 -8 -7 -16 -15 -20 -9 -3 -15 -19 -15 -41 0 -23 4 -34 11 -30 19 12 69 87 63 96 -3 5 -1 9 5 9 11 0 41 90 41 122 0 11 -7 18 -18 18 -13 0 -21 -14 -30 -53z"></path><path id="pgJjID82e" d="M3435 3088 c16 -102 84 -199 186 -269 32 -22 59 -38 59 -35 0 3 15 -9 33 -25 30 -28 116 -78 173 -99 21 -8 24 -7 24 14 0 14 -9 27 -22 34 -23 10 -23 11 5 11 15 1 27 -3 27 -9 0 -6 33 -10 80 -10 73 0 80 2 80 20 0 18 -7 20 -82 22 -46 0 -89 1 -95 1 -7 -1 -11 3 -8 7 3 4 -6 11 -20 14 -33 8 -92 71 -100 107 -9 42 -35 38 -35 -6 0 -24 5 -35 15 -35 9 0 15 -9 15 -25 0 -16 6 -25 15 -25 8 0 15 -6 15 -13 0 -9 -10 -12 -30 -9 -21 3 -30 10 -30 23 0 11 -7 19 -15 19 -8 0 -15 5 -15 10 0 6 -13 10 -30 10 -23 0 -30 4 -30 20 0 11 -7 20 -15 20 -8 0 -15 5 -15 10 0 6 -16 10 -35 10 -33 0 -35 2 -35 35 0 24 -5 35 -15 35 -8 0 -15 7 -15 15 0 9 -9 33 -19 53 -11 21 -22 55 -26 75 -6 28 -12 37 -27 37 -18 0 -19 -5 -13 -42z m395 -347 c0 -5 8 -12 18 -14 10 -3 6 -5 -10 -6 -19 -1 -28 4 -28 14 0 8 5 15 10 15 6 0 10 -4 10 -9z"></path><path id="pb0TJzGVu" d="M5647 3066 c-9 -35 -17 -76 -17 -90 0 -16 -6 -26 -15 -26 -8 0 -15 -7 -15 -15 0 -8 -4 -15 -10 -15 -5 0 -10 -7 -10 -15 0 -8 -4 -15 -10 -15 -5 0 -10 -8 -10 -19 0 -10 -9 -21 -20 -24 -15 -4 -20 -14 -20 -40 0 -33 -3 -36 -32 -39 -29 -3 -33 -7 -36 -35 -3 -30 -6 -33 -39 -33 -26 0 -36 -5 -40 -20 -3 -11 -14 -20 -24 -20 -11 0 -19 -4 -19 -10 0 -5 -7 -10 -15 -10 -8 0 -15 -4 -15 -10 0 -5 -7 -10 -15 -10 -8 0 -15 -7 -15 -15 0 -8 -9 -15 -20 -15 -29 0 -70 -21 -70 -37 0 -7 -11 -13 -25 -13 -28 0 -95 -30 -95 -42 0 -4 -13 -8 -30 -8 -16 0 -30 -4 -30 -9 0 -4 -21 -11 -46 -14 -26 -2 -49 -9 -53 -14 -6 -9 -122 -28 -238 -40 -45 -5 -53 -9 -53 -26 0 -18 4 -19 46 -13 26 3 55 6 66 6 12 0 16 4 12 11 -5 8 1 10 18 6 30 -8 142 9 146 22 2 6 9 8 16 5 19 -7 180 48 267 91 129 65 303 190 318 229 2 6 14 19 27 28 59 47 132 173 158 276 20 76 20 82 -2 82 -13 0 -22 -16 -35 -64z"></path><path id="p17UNcVwyv" d="M5026 3090 c-111 -14 -130 -123 -29 -165 50 -21 73 -19 73 5 0 16 -7 20 -30 20 -16 0 -30 5 -30 10 0 6 -6 10 -14 10 -16 0 -24 25 -18 51 6 28 85 44 135 29 78 -23 90 -69 22 -89 -33 -10 -45 -18 -45 -32 0 -22 16 -24 57 -8 110 41 90 151 -30 168 -23 4 -64 4 -91 1z"></path><path id="p1BDVpaYcw" d="M3873 3083 c-13 -2 -23 -9 -23 -14 0 -5 -9 -9 -20 -9 -16 0 -20 -7 -20 -31 l0 -30 30 21 c16 12 46 24 66 27 26 4 32 8 22 15 -9 7 -4 8 15 4 32 -8 37 9 5 18 -24 6 -39 6 -75 -1z"></path><path id="pvUAM8S0Q" d="M3220 3063 c1 -53 120 -267 173 -312 15 -12 17 -10 17 23 0 25 -6 40 -20 48 -11 7 -20 18 -20 25 0 7 -6 13 -14 13 -7 0 -16 14 -19 30 -4 18 -13 30 -22 30 -10 0 -15 10 -15 30 0 20 -5 30 -15 30 -10 0 -15 10 -15 28 0 47 -11 72 -31 72 -11 0 -19 -7 -19 -17z"></path><path id="pn1fPsivc" d="M3340 3036 c0 -45 13 -86 26 -86 8 0 14 -10 14 -24 0 -35 10 -56 26 -56 8 0 14 -9 14 -20 0 -15 7 -20 29 -20 26 0 30 -4 33 -32 2 -25 8 -34 26 -36 12 -2 22 -10 22 -18 0 -8 7 -14 15 -14 8 0 15 -4 15 -10 0 -5 11 -12 25 -16 14 -3 25 -10 25 -15 0 -5 7 -9 15 -9 8 0 15 -4 15 -10 0 -5 16 -10 36 -10 46 0 38 11 -50 68 -147 94 -212 169 -243 278 -16 55 -43 75 -43 30z"></path><path id="pKb4JNWsI" d="M3917 2976 c-84 -30 -99 -75 -42 -125 62 -54 145 -62 214 -20 69 42 64 101 -11 138 -50 24 -106 26 -161 7z m130 -38 c35 -16 43 -26 43 -59 0 -24 -4 -27 -55 -33 -40 -4 -63 -2 -85 9 -16 8 -38 15 -50 15 -25 0 -25 18 -1 47 26 32 100 42 148 21z"></path><path id="p1EeKL69Sc" d="M4333 2933 c-12 -4 -19 -73 -8 -73 2 0 15 11 29 25 14 14 32 25 41 25 8 0 15 7 15 15 0 15 -48 20 -77 8z"></path><path id="pAWExHHk6" d="M4571 2931 c-17 -11 -10 -163 8 -169 6 -2 11 -12 11 -23 0 -14 7 -19 25 -19 20 0 25 -5 25 -24 0 -40 96 -64 108 -27 3 10 0 12 -12 8 -9 -4 -16 -3 -16 2 0 5 -14 14 -31 21 -42 18 -76 67 -90 130 -10 48 -10 55 7 68 26 19 96 8 148 -22 38 -22 86 -92 86 -125 0 -6 7 -11 15 -11 10 0 15 11 15 35 0 19 -4 35 -9 35 -5 0 -11 14 -14 30 -4 18 -13 30 -22 30 -8 0 -15 7 -15 15 0 8 -7 15 -15 15 -8 0 -15 4 -15 9 0 26 -174 44 -209 22z"></path><path id="pG9E7KX6i" d="M4438 2863 c3 -27 0 -40 -14 -50 -16 -12 -14 -13 19 -13 l37 0 0 50 c0 46 -2 50 -23 50 -21 0 -23 -4 -19 -37z"></path><path id="puBrDtYnb" d="M1736 2774 c-4 -14 -5 -28 -3 -31 3 -2 8 8 11 23 4 14 5 28 3 31 -3 2 -8 -8 -11 -23z"></path><path id="pofM00Gwp" d="M4280 2730 c0 -21 16 -25 58 -14 39 11 27 34 -18 34 -33 0 -40 -3 -40 -20z"></path><path id="pbQwMfyRu" d="M4430 2735 c0 -8 6 -15 14 -15 21 0 66 -40 66 -58 0 -9 -28 -46 -62 -82 -54 -57 -58 -65 -40 -68 16 -2 22 -10 22 -28 0 -15 6 -24 15 -24 8 0 15 7 15 15 0 24 39 52 81 59 54 9 54 36 -1 36 -38 0 -40 2 -40 30 0 25 4 30 25 30 22 0 25 4 25 35 0 49 -36 85 -85 85 -24 0 -35 -4 -35 -15z"></path><path id="pvVUcXt9Q" d="M4166 2718 c-47 -17 -66 -39 -66 -77 l0 -35 38 36 c20 20 56 42 80 49 51 15 57 39 10 38 -18 0 -46 -5 -62 -11z"></path><path id="p11ENLrydA" d="M3470 2680 c88 -79 270 -178 418 -228 80 -28 90 -28 98 4 4 14 29 51 56 82 l50 57 -31 3 c-17 2 -31 7 -31 11 0 21 -40 51 -69 51 -37 0 -40 -12 -6 -30 30 -16 43 -49 24 -61 -16 -10 -99 -7 -93 2 2 4 -8 10 -23 14 -15 3 -53 22 -85 40 l-58 34 0 -28 c0 -30 30 -51 75 -51 14 0 25 -6 25 -13 0 -18 64 -37 131 -38 30 -1 44 -4 32 -6 -16 -3 -23 -11 -23 -28 0 -22 -3 -24 -32 -18 -18 3 -35 9 -38 12 -9 11 -60 31 -80 31 -10 0 -20 4 -22 9 -5 13 -105 61 -128 61 -11 0 -20 7 -20 15 0 9 -9 15 -25 15 -16 0 -25 6 -25 15 0 8 -6 15 -14 15 -8 0 -16 7 -20 15 -3 8 -17 15 -31 15 -18 0 -25 5 -25 20 0 16 -7 20 -37 20 l-38 -1 45 -39z"></path><path id="p1AbFe8Ld4" d="M4840 2705 c0 -8 -9 -20 -20 -27 -29 -19 -24 -28 15 -28 33 0 35 2 35 35 0 24 -5 35 -15 35 -8 0 -15 -7 -15 -15z"></path><path id="pca2c0fXn" d="M5590 2655 c-24 -25 -42 -45 -39 -45 3 0 25 20 49 45 24 25 42 45 39 45 -3 0 -25 -20 -49 -45z"></path><path id="p14ecjEgwh" d="M5078 2594 c-38 -20 -35 -34 7 -34 31 0 35 3 35 25 0 29 -5 30 -42 9z"></path><path id="pXdJi77tC" d="M4945 2539 c-44 -16 -88 -29 -98 -29 -10 0 -15 -4 -12 -10 3 -5 -2 -9 -12 -8 -18 3 -114 -8 -165 -18 -16 -3 -28 -12 -28 -21 0 -14 11 -15 73 -9 75 7 238 44 247 56 3 4 22 10 43 14 31 6 37 11 37 31 0 14 -1 25 -2 24 -2 0 -39 -14 -83 -30z"></path><path id="pVszpPI6q" d="M4173 2497 c-61 -62 -63 -65 -63 -115 0 -45 3 -52 19 -52 16 0 21 8 24 43 l4 42 1 -42 c2 -53 28 -60 36 -10 3 17 8 50 11 72 4 22 17 59 30 83 13 23 19 42 13 42 -6 0 -40 -28 -75 -63z"></path><path id="pzsFYaubZ" d="M622 2485 c0 -11 4 -31 8 -45 6 -20 8 -21 8 -5 0 11 -4 31 -8 45 -6 20 -8 21 -8 5z"></path><path id="pfktgPMAF" d="M4352 2477 c-25 -26 -54 -92 -45 -101 15 -14 33 -4 33 18 0 15 7 26 20 29 15 4 20 14 20 41 0 20 -1 36 -3 36 -2 0 -13 -10 -25 -23z"></path><path id="p15LHfibMc" d="M4525 2461 c3 -6 -4 -8 -15 -6 -13 2 -20 -1 -20 -11 0 -10 12 -14 40 -14 33 0 40 3 40 20 0 15 -7 20 -26 20 -14 0 -23 -4 -19 -9z"></path><path id="pzgvOXudx" d="M5000 2318 c0 -3 7 -19 15 -34 8 -16 15 -22 15 -14 -1 8 -7 24 -15 34 -8 11 -15 17 -15 14z"></path><path id="phfX2qglS" d="M1796 2245 c-109 -45 -203 -164 -222 -283 -6 -37 -4 -42 13 -42 16 0 22 11 33 58 7 31 15 59 19 62 19 14 41 63 41 90 0 27 3 30 34 30 18 0 39 6 45 14 25 30 113 58 165 53 69 -6 184 -60 214 -99 7 -10 20 -18 28 -18 8 0 14 -7 14 -15 0 -16 28 -65 43 -76 5 -4 11 -45 14 -91 5 -82 4 -88 -28 -149 -18 -35 -42 -70 -51 -77 -10 -7 -18 -22 -18 -33 0 -12 -7 -19 -19 -19 -11 0 -41 -11 -67 -25 -26 -14 -65 -28 -86 -31 -28 -5 -38 -11 -38 -25 0 -64 220 37 285 131 53 77 68 127 63 214 -10 167 -105 287 -266 336 -84 26 -144 25 -216 -5z"></path><path id="pChPxv0UA" d="M4763 2263 c9 -2 25 -2 35 0 9 3 1 5 -18 5 -19 0 -27 -2 -17 -5z"></path><path id="pvA1lwdS2" d="M4418 2243 c28 -2 76 -2 105 0 28 2 5 3 -53 3 -58 0 -81 -1 -52 -3z"></path><path id="pyUzSXEQv" d="M4160 2226 c0 -9 -8 -12 -25 -8 -50 9 -26 -32 75 -133 l100 -100 0 35 c0 28 -10 44 -52 87 -29 29 -47 53 -39 53 8 0 6 9 -8 29 -12 16 -21 34 -21 40 0 6 -7 11 -15 11 -8 0 -15 -6 -15 -14z"></path><path id="p92yYaf4h" d="M1835 2125 c-22 -8 -41 -19 -43 -25 -2 -5 -9 -10 -16 -10 -18 0 -63 -50 -75 -83 -6 -16 -11 -42 -11 -58 0 -39 26 -38 35 2 9 40 67 105 116 130 45 22 106 25 152 5 41 -17 91 -74 107 -122 15 -44 8 -120 -15 -164 -18 -36 -94 -87 -140 -96 -85 -16 -183 50 -212 142 -19 61 -43 73 -43 20 0 -39 18 -96 31 -96 5 0 9 -6 9 -13 0 -19 39 -54 82 -72 53 -22 162 -19 216 5 33 15 42 24 42 45 0 20 5 25 24 25 26 0 38 25 51 107 7 46 -10 146 -28 166 -7 7 -17 21 -23 32 -6 10 -19 23 -30 29 -10 6 -21 14 -24 17 -24 29 -141 37 -205 14z"></path><path id="pV8O9sRJD" d="M4465 2090 c21 -22 41 -40 44 -40 3 0 -13 18 -34 40 -21 22 -41 40 -44 40 -3 0 13 -18 34 -40z"></path><path id="pkRKJb7Mc" d="M5013 2035 c0 -27 2 -38 4 -22 2 15 2 37 0 50 -2 12 -4 0 -4 -28z"></path><path id="p9LZdeIBa" d="M4658 2053 c12 -2 30 -2 40 0 9 3 -1 5 -23 4 -22 0 -30 -2 -17 -4z"></path><path id="p15otWhn7g" d="M2383 2003 c3 -10 8 -35 12 -55 7 -43 35 -54 35 -14 l0 25 96 -45 c52 -24 109 -44 125 -44 18 0 29 -5 29 -14 0 -14 196 -106 225 -106 8 0 15 -4 15 -9 0 -10 250 -121 274 -121 9 0 16 -4 16 -10 0 -5 7 -10 17 -10 15 0 15 -2 1 -17 -50 -57 -91 -223 -55 -223 10 0 19 17 27 53 16 65 33 101 76 154 36 44 40 53 23 53 -11 0 -255 105 -384 165 -38 18 -115 53 -170 78 -55 25 -155 70 -223 101 -68 31 -128 56 -133 56 -6 0 -8 -8 -6 -17z"></path><path id="pIVQBBXgB" d="M1453 1910 c0 -47 2 -66 4 -42 2 23 2 61 0 85 -2 23 -4 4 -4 -43z"></path><path id="pYqBERADN" d="M1865 1965 c-28 -27 -33 -65 -10 -65 9 0 26 11 38 25 43 49 96 1 55 -50 -23 -30 -54 -33 -63 -5 -8 26 -45 27 -45 0 0 -29 39 -60 76 -60 52 0 87 37 87 90 0 35 -6 48 -27 67 -36 30 -80 30 -111 -2z"></path><path id="p9SWJeYO6" d="M4790 1965 c-18 -19 -34 -25 -64 -25 -23 0 -51 -3 -63 -6 -30 -8 -30 -34 1 -34 19 0 22 -4 18 -25 -8 -43 29 -30 91 33 53 54 69 82 49 82 -5 0 -19 -11 -32 -25z"></path><path id="pBJKTh5Fn" d="M4430 1932 c0 -27 3 -30 46 -36 85 -11 104 -8 104 15 0 20 -4 21 -46 15 -37 -5 -52 -2 -75 15 l-29 20 0 -29z"></path><path id="prWQWuwG8" d="M1574 1848 c15 -91 83 -196 154 -239 46 -27 137 -59 169 -59 16 0 23 6 23 20 0 13 -7 20 -20 20 -38 0 -135 44 -170 77 -19 18 -41 33 -47 33 -7 0 -13 6 -13 13 0 6 -11 34 -25 61 -13 27 -27 64 -31 82 -5 25 -11 34 -26 34 -18 0 -20 -4 -14 -42z"></path><path id="p1D4rZEbN6" d="M4435 1860 c10 -11 26 -20 37 -20 11 0 18 7 18 20 0 16 -7 20 -37 20 -35 0 -36 0 -18 -20z"></path><path id="p19jJEAASj" d="M4500 1860 c0 -16 7 -20 33 -20 47 0 77 10 77 26 0 10 -15 14 -55 14 -48 0 -55 -2 -55 -20z"></path><path id="p13iUU2hFz" d="M2390 1808 c-17 -70 -62 -159 -107 -209 -20 -22 -34 -41 -32 -43 5 -4 759 -280 868 -318 46 -16 85 -27 88 -25 2 3 -1 25 -8 51 -11 46 -39 65 -39 26 0 -11 -1 -20 -3 -20 -2 0 -47 16 -101 35 -54 19 -106 35 -116 35 -10 0 -20 3 -22 8 -5 11 -140 62 -165 62 -12 0 -23 3 -25 8 -5 11 -140 62 -166 62 -12 0 -22 4 -22 9 0 4 -35 20 -77 35 -121 42 -133 48 -133 62 0 8 5 14 10 14 6 0 10 7 10 15 0 8 4 15 9 15 16 0 62 120 68 175 5 45 3 55 -10 55 -10 0 -19 -17 -27 -52z"></path><path id="pCQ30kN1I" d="M3793 1740 c-35 -33 -63 -61 -63 -63 0 -2 25 -21 55 -42 57 -39 105 -91 126 -138 7 -15 16 -26 20 -25 4 2 37 30 74 62 l66 59 -103 104 c-56 57 -105 103 -108 103 -3 -1 -33 -27 -67 -60z m138 -76 c61 -60 65 -68 55 -90 -6 -13 -17 -24 -23 -24 -7 0 -13 -6 -14 -12 0 -10 -2 -10 -6 0 -2 6 -11 12 -19 12 -8 0 -14 9 -14 20 0 16 -7 20 -30 20 -27 0 -30 3 -30 30 0 19 -6 33 -17 37 -9 4 -25 15 -35 25 -17 17 -17 18 6 18 13 0 29 7 36 15 7 8 15 15 18 15 4 0 36 -30 73 -66z"></path><path id="pkPBWvAmT" d="M4733 1733 c9 -2 25 -2 35 0 9 3 1 5 -18 5 -19 0 -27 -2 -17 -5z"></path><path id="p18k6yWVUj" d="M4573 1723 c9 -2 25 -2 35 0 9 3 1 5 -18 5 -19 0 -27 -2 -17 -5z"></path><path id="pNcfYJ1jY" d="M3472 1565 c-80 -35 -133 -99 -147 -177 -7 -34 -5 -38 14 -38 12 0 21 6 21 15 0 24 33 87 61 114 27 28 90 61 114 61 8 0 15 9 15 20 0 24 -29 26 -78 5z"></path><path id="pd2Q40d81" d="M3610 1560 c0 -15 7 -20 25 -20 14 0 25 -4 25 -10 0 -5 7 -10 15 -10 8 0 15 -4 15 -10 0 -5 9 -10 20 -10 11 0 20 -7 20 -15 0 -8 3 -15 8 -15 12 0 52 -96 52 -126 0 -34 -30 -124 -42 -124 -4 0 -8 -9 -8 -20 0 -11 -6 -20 -12 -20 -7 0 -40 -14 -72 -30 -72 -37 -108 -38 -172 -5 -27 14 -57 25 -66 25 -11 0 -18 8 -18 18 0 10 -9 35 -20 57 -11 22 -20 45 -20 52 0 7 -9 13 -20 13 -24 0 -25 -14 -5 -71 49 -137 210 -194 350 -124 101 50 153 143 142 251 -9 87 -58 153 -143 194 -55 25 -74 25 -74 0z"></path><path id="pn7td7ZVW" d="M3510 1485 c0 -10 -10 -15 -30 -15 -20 0 -33 -6 -37 -17 -4 -10 -11 -21 -16 -24 -5 -4 -12 -27 -14 -53 -5 -37 -3 -46 10 -46 9 0 18 12 22 30 16 72 87 118 154 100 55 -15 89 -45 101 -91 21 -77 -18 -148 -91 -170 -50 -15 -52 -39 -4 -39 86 0 135 58 135 160 0 89 -7 110 -36 110 -19 0 -24 5 -24 24 0 30 -40 46 -116 46 -41 0 -54 -4 -54 -15z"></path><path id="pXKDOHT3m" d="M4104 1448 l-29 -33 33 29 c30 28 37 36 29 36 -2 0 -16 -15 -33 -32z"></path><path id="p2Xl8o0su" d="M1898 1433 c12 -2 32 -2 45 0 12 2 2 4 -23 4 -25 0 -35 -2 -22 -4z"></path><path id="p7wHE1QxM" d="M3410 1280 c0 -48 26 -90 55 -90 16 0 25 -6 25 -15 0 -10 11 -15 35 -15 44 0 48 26 5 35 -33 7 -77 53 -86 91 -9 35 -34 31 -34 -6z"></path><path id="p16e7NAKrj" d="M5079 1163 l-34 -38 38 34 c20 19 37 36 37 38 0 8 -8 0 -41 -34z"></path><path id="pLJmuM4ov" d="M4760 1129 l-45 -41 42 32 c37 27 61 51 51 50 -2 0 -23 -19 -48 -41z"></path><path id="p8nGLXulK" d="M1410 1107 c0 -2 15 -16 33 -33 l32 -29 -29 33 c-28 30 -36 37 -36 29z"></path><path id="pXEAJ5byz" d="M4830 949 c-35 -31 -35 -31 -3 -9 18 11 35 25 38 30 10 16 2 11 -35 -21z"></path><path id="p3YkTxnI8" d="M3583 623 c9 -2 25 -2 35 0 9 3 1 5 -18 5 -19 0 -27 -2 -17 -5z"></path><path id="pZfCZeekH" d="M3513 613 c9 -2 25 -2 35 0 9 3 1 5 -18 5 -19 0 -27 -2 -17 -5z"></path><path id="pPKQ9k3M3" d="M3083 593 c9 -2 25 -2 35 0 9 3 1 5 -18 5 -19 0 -27 -2 -17 -5z"></path><path id="pA4w65Nzk" d="M2948 413 c12 -2 32 -2 45 0 12 2 2 4 -23 4 -25 0 -35 -2 -22 -4z"></path><path id="p1Dg7yrbUT" d="M3408 413 c12 -2 30 -2 40 0 9 3 -1 5 -23 4 -22 0 -30 -2 -17 -4z"></path></g></g><g id="lEMYscTzBvpdqiK2O6fEZR" fill="rgb(209,119,58)" style="transform: none;"><g><path id="pqYLSvA1s" d="M1410 4665 l0 -155 770 0 770 0 0 155 0 155 -770 0 -770 0 0 -155z"></path><path id="p18HI5ZcCR" d="M1660 4217 l0 -164 118 -146 117 -147 15 78 c22 105 63 183 140 262 75 77 127 112 215 145 62 24 222 46 280 39 17 -2 51 -5 78 -7 l47 -5 0 54 0 54 -505 0 -505 0 0 -163z"></path><path id="pxiO9rKiW" d="M2348 4120 c-118 -20 -256 -136 -297 -248 -62 -172 -20 -356 107 -474 32 -29 80 -64 108 -78 43 -22 62 -25 159 -25 105 0 113 2 180 34 89 44 168 119 208 196 30 58 31 64 32 190 0 122 -2 133 -26 180 -33 62 -129 154 -196 188 -49 25 -151 48 -203 46 -14 -1 -46 -5 -72 -9z m207 -238 c112 -77 115 -276 5 -348 -67 -45 -183 -47 -240 -6 -88 65 -110 208 -47 300 64 91 192 116 282 54z"></path><path id="pm0iNrqfN" d="M4875 3535 c-41 -14 -85 -56 -85 -79 0 -23 42 -68 76 -82 53 -22 135 -18 175 9 69 46 59 110 -24 148 -50 22 -88 23 -142 4z"></path><path id="ppmTNzDBq" d="M3723 3415 c-48 -22 -53 -27 -53 -56 0 -68 102 -116 190 -90 109 32 122 103 26 147 -64 30 -98 30 -163 -1z"></path><path id="p1ATWC43q" d="M2013 3273 c-11 -38 -28 -97 -38 -133 -10 -36 -32 -114 -50 -175 -18 -60 -42 -141 -54 -180 -11 -38 -42 -143 -69 -232 -28 -90 -49 -163 -48 -163 0 0 25 9 55 21 124 47 268 31 382 -42 l60 -39 18 42 c10 24 94 214 186 423 92 209 169 385 172 391 3 8 -13 8 -54 -2 -70 -16 -212 -18 -268 -3 -67 18 -158 66 -214 114 -29 25 -54 45 -55 45 -1 0 -11 -30 -23 -67z"></path><path id="p1BOGp4HX3" d="M4437 3239 c-72 -38 -71 -91 3 -129 79 -40 198 -19 230 41 42 78 -129 143 -233 88z m109 -61 c12 -40 -50 -64 -90 -35 -15 11 -17 17 -7 35 17 32 87 32 97 0z"></path><path id="pVkmHplz0" d="M4984 3076 c-41 -18 -62 -67 -43 -102 30 -57 136 -80 212 -46 83 37 86 104 7 144 -42 21 -132 23 -176 4z"></path><path id="pZyfb9VfI" d="M3940 2978 c-55 -12 -90 -42 -90 -78 0 -90 225 -125 269 -42 43 81 -56 147 -179 120z"></path><path id="pENagNllj" d="M4183 2502 c-58 -56 -60 -61 -66 -122 -4 -34 -7 -90 -7 -124 l1 -61 172 -177 172 -178 125 6 125 6 63 61 c34 34 62 66 62 71 0 6 -15 -4 -32 -21 l-33 -31 -145 -5 -145 -5 -143 141 -144 142 4 125 c4 111 8 131 32 178 14 28 24 52 22 52 -2 0 -31 -26 -63 -58z"></path><path id="p1ErURnfny" d="M1791 2240 c-104 -48 -177 -137 -206 -251 -64 -246 171 -487 414 -425 115 29 193 92 247 198 24 46 28 64 27 141 -1 78 -4 95 -32 152 -37 74 -97 132 -180 172 -77 37 -204 44 -270 13z m180 -141 c85 -29 141 -108 141 -197 -1 -86 -40 -147 -117 -183 -85 -39 -184 -11 -239 69 -39 55 -47 148 -19 201 22 42 78 88 129 106 48 17 62 18 105 4z"></path><path id="pqW7cnIKm" d="M1861 1954 c-29 -37 -27 -89 4 -119 33 -33 70 -32 106 4 58 59 29 141 -50 141 -31 0 -44 -6 -60 -26z"></path><path id="pwMkv0tsq" d="M2392 1978 c5 -24 8 -77 6 -119 -5 -86 -39 -170 -102 -252 -21 -27 -36 -50 -34 -51 2 -2 39 -15 83 -31 44 -15 107 -38 140 -50 33 -13 103 -39 155 -58 52 -20 133 -50 180 -67 47 -18 146 -54 220 -80 74 -27 143 -51 152 -55 15 -6 16 -3 6 32 -6 21 -8 74 -5 118 5 90 33 157 86 211 l30 31 -47 20 c-26 12 -99 44 -162 71 -63 28 -173 77 -245 110 -210 96 -467 212 -470 212 -2 0 2 -19 7 -42z"></path><path id="pg0YHrazr" d="M3791 1732 c-62 -57 -63 -58 -40 -69 40 -18 117 -91 151 -144 l32 -50 64 64 64 64 -97 94 c-53 52 -100 95 -103 96 -4 1 -36 -24 -71 -55z"></path><path id="p1DU25NMpv" d="M3500 1571 c-101 -31 -166 -110 -177 -216 -15 -146 93 -265 242 -265 87 0 176 45 216 108 42 67 55 143 35 207 -33 104 -129 176 -235 174 -31 0 -67 -4 -81 -8z m123 -115 c52 -22 79 -59 85 -114 8 -89 -48 -152 -138 -152 -80 0 -129 49 -130 128 0 60 25 109 69 132 43 23 71 25 114 6z"></path></g></g><g id="l5cOmjZ847lW9yPFexN4UtB" fill="rgb(158,153,134)" style="transform: none;"><g><path id="pXFUG6tgU" d="M1933 5083 c554 -2 1460 -2 2015 0 554 1 100 2 -1008 2 -1108 0 -1562 -1 -1007 -2z"></path><path id="pniSOnDEb" d="M4935 4860 c44 -44 82 -80 85 -80 2 0 -31 36 -75 80 -44 44 -82 80 -85 80 -2 0 31 -36 75 -80z"></path><path id="pTRMJzmDZ" d="M2804 4377 c-2 -7 -3 -69 -1 -138 l3 -124 2 132 2 132 28 4 27 4 -28 2 c-15 0 -30 -5 -33 -12z"></path><path id="p15DX97kqt" d="M4338 4033 c-10 -2 -18 -11 -18 -19 0 -10 14 -14 55 -14 48 0 55 2 55 20 0 17 -6 20 -37 19 -21 -1 -46 -3 -55 -6z"></path><path id="pRt3xh2Al" d="M4480 4020 c0 -16 6 -20 33 -19 17 0 41 4 52 9 18 8 17 9 -7 9 -16 1 -28 6 -28 11 0 6 -11 10 -25 10 -18 0 -25 -5 -25 -20z"></path><path id="pfqm6Fh2D" d="M4183 4018 c-40 -6 -73 -14 -73 -20 0 -6 -6 -8 -14 -5 -33 13 -335 -85 -344 -110 -7 -22 50 -15 138 18 96 35 257 75 343 85 47 5 57 10 57 25 0 21 0 21 -107 7z"></path><path id="pcl4UELRG" d="M4610 4013 c0 -18 11 -21 100 -32 55 -7 105 -9 110 -6 16 10 12 25 -5 19 -8 -4 -15 -2 -15 4 0 5 -26 12 -57 16 -32 4 -75 9 -95 13 -33 5 -38 3 -38 -14z"></path><path id="p14OfL1NY0" d="M4840 3971 c0 -19 34 -31 91 -31 50 0 35 27 -21 39 -67 14 -70 14 -70 -8z"></path><path id="pMSGY6aiU" d="M4340 3930 c0 -18 7 -20 55 -20 48 0 55 2 55 20 0 18 -7 20 -55 20 -48 0 -55 -2 -55 -20z"></path><path id="p3Dd0UUd3" d="M4195 3933 c-59 -12 -151 -38 -155 -43 -3 -3 -27 -11 -55 -18 -27 -7 -52 -17 -55 -21 -3 -4 -23 -11 -44 -14 -22 -4 -42 -10 -45 -15 -3 -5 -23 -12 -43 -16 -21 -4 -38 -11 -38 -16 0 -6 -9 -10 -20 -10 -13 0 -20 -7 -20 -20 0 -16 -7 -20 -30 -20 -16 0 -30 -4 -30 -9 0 -5 -9 -11 -21 -14 -11 -3 -23 -15 -26 -26 -3 -11 -15 -21 -27 -23 -13 -2 -22 -11 -24 -25 -3 -17 -10 -23 -28 -23 -20 0 -24 -5 -24 -29 0 -26 -4 -30 -32 -33 -25 -2 -34 -8 -36 -25 -2 -13 -10 -23 -18 -23 -8 0 -14 -7 -14 -15 0 -8 -4 -15 -9 -15 -23 0 -81 -182 -81 -257 0 -39 28 -27 36 15 3 20 13 62 22 92 9 30 15 58 14 63 -1 4 2 7 7 7 5 0 15 15 22 33 7 17 26 46 41 62 15 17 28 33 28 37 0 9 182 157 241 196 67 45 400 158 522 177 23 4 37 11 37 20 0 15 -46 19 -95 8z"></path><path id="pKZD7zU5C" d="M4500 3925 c0 -9 14 -16 38 -20 20 -4 105 -22 188 -41 83 -18 168 -36 190 -38 21 -2 47 -7 56 -11 9 -4 22 -4 28 0 5 3 10 1 10 -4 0 -6 7 -11 15 -11 26 0 139 -55 204 -99 l61 -42 0 31 c0 20 -5 30 -15 30 -8 0 -15 5 -15 10 0 6 -7 10 -15 10 -8 0 -15 5 -15 10 0 6 -11 10 -25 10 -15 0 -25 6 -25 14 0 15 -21 26 -51 26 -10 0 -19 4 -19 10 0 11 -45 24 -155 46 -44 8 -148 31 -231 50 -165 37 -224 43 -224 19z"></path><path id="pmM5Fo5rX" d="M5020 3920 c0 -15 7 -20 25 -20 14 0 25 -4 25 -10 0 -5 11 -10 25 -10 14 0 25 -4 25 -8 0 -5 24 -19 53 -33 28 -13 58 -30 65 -36 7 -7 22 -13 33 -13 10 0 19 -7 19 -15 0 -8 7 -15 15 -15 8 0 15 -4 15 -10 0 -5 11 -10 25 -10 18 0 25 -5 25 -20 0 -16 7 -20 30 -20 17 0 30 4 30 9 0 13 -134 112 -200 148 -30 17 -62 28 -70 26 -8 -3 -12 -2 -7 2 7 9 -94 55 -120 55 -7 0 -13 -9 -13 -20z"></path><path id="pChChFJhl" d="M3586 3800 c-41 -28 -96 -71 -123 -95 l-48 -44 32 -1 c34 0 73 25 73 47 0 7 9 13 20 13 11 0 20 7 20 15 0 8 9 15 20 15 11 0 20 5 20 10 0 6 7 10 15 10 8 0 15 4 15 9 0 5 11 12 25 15 18 5 25 13 25 31 0 14 -4 25 -9 25 -5 0 -43 -23 -85 -50z"></path><path id="p11zZVUy2b" d="M4348 3833 c-10 -2 -18 -11 -18 -19 0 -11 17 -14 80 -14 61 0 80 3 80 14 0 22 -86 34 -142 19z"></path><path id="p9YrFxvwg" d="M3330 3773 l-55 -58 58 55 c53 50 62 60 54 60 -1 0 -27 -26 -57 -57z"></path><path id="pNiu8M7Cp" d="M4260 3819 c0 -6 -7 -8 -16 -5 -10 4 -14 1 -12 -6 3 -7 21 -14 41 -16 32 -3 37 0 37 17 0 16 -6 21 -25 21 -14 0 -25 -5 -25 -11z"></path><path id="p7CK3PCPo" d="M4520 3812 c0 -13 14 -20 58 -29 31 -6 134 -28 227 -49 219 -47 245 -50 245 -31 0 16 -102 49 -126 40 -8 -3 -14 -1 -14 5 0 10 -108 28 -142 24 -10 -1 -18 2 -18 7 0 11 -127 37 -164 33 -18 -2 -26 0 -21 7 4 7 -4 11 -19 11 -18 0 -26 -5 -26 -18z"></path><path id="pbayAD0oW" d="M4148 3798 c-42 -11 -52 -38 -14 -38 52 0 86 12 86 31 0 21 -14 22 -72 7z"></path><path id="paEk2KrVM" d="M4050 3768 c-19 -5 -37 -13 -40 -16 -3 -4 -9 -7 -15 -7 -37 -2 -130 -31 -182 -58 -97 -50 -313 -235 -313 -268 0 -7 12 -9 30 -7 27 4 30 2 30 -24 0 -40 24 -35 37 7 11 33 10 35 -13 35 -19 0 -24 5 -24 24 0 20 6 25 35 28 24 3 35 0 35 -9 0 -8 11 -6 35 9 22 12 61 22 100 26 56 4 65 7 65 25 0 18 -4 19 -67 12 -38 -4 -69 -11 -71 -16 -9 -23 -18 -6 -14 26 4 32 7 35 38 35 24 0 34 5 34 15 0 8 9 15 19 15 11 0 26 7 35 15 8 8 19 15 25 15 6 0 11 6 11 14 0 8 17 15 48 19 26 3 55 9 65 12 10 4 17 3 17 -4 0 -6 -7 -11 -15 -11 -11 0 -15 -12 -15 -47 0 -67 9 -93 31 -93 12 0 19 -7 19 -20 0 -11 -7 -20 -15 -20 -8 0 -15 5 -15 10 0 6 -16 10 -35 10 -48 0 -44 -16 10 -41 61 -29 90 -71 90 -131 0 -60 -25 -95 -95 -130 -44 -23 -66 -28 -124 -28 -43 1 -81 6 -96 15 -35 20 -40 19 -40 -9 0 -29 11 -34 93 -42 66 -6 180 9 185 26 2 6 12 10 23 10 14 0 19 7 19 30 0 26 3 30 29 30 17 0 31 6 35 16 10 26 7 164 -4 164 -5 0 -10 4 -10 9 0 4 17 4 38 -2 41 -11 72 -5 72 14 0 6 -7 9 -15 5 -8 -3 -15 -2 -15 3 0 5 -11 12 -25 15 -37 10 -103 73 -110 107 -4 16 -11 29 -16 29 -5 0 -3 11 3 25 9 20 18 25 49 25 21 0 49 -4 63 -10 23 -9 26 -7 26 15 0 21 -6 25 -47 30 -27 3 -55 7 -63 9 -8 1 9 8 38 16 44 12 52 17 52 37 0 13 -1 23 -2 22 -2 0 -19 -5 -38 -11z m-20 -298 c0 -5 -7 -10 -15 -10 -8 0 -15 5 -15 10 0 6 7 10 15 10 8 0 15 -4 15 -10z"></path><path id="pVQ4DKKB6" d="M4478 3763 c-16 -2 -28 -9 -28 -14 0 -5 -9 -9 -20 -9 -16 0 -20 -7 -20 -30 0 -26 -4 -30 -28 -30 -23 0 -32 -7 -45 -35 -20 -42 -22 -95 -4 -95 6 1 24 27 38 59 35 77 82 113 154 119 130 11 201 -43 148 -109 -47 -58 -88 -90 -129 -100 -54 -14 -60 -39 -9 -39 24 0 35 5 35 15 0 10 11 15 35 15 24 0 35 5 35 15 0 8 5 15 11 15 13 0 39 25 39 38 0 6 4 12 9 14 5 2 13 31 17 66 6 53 4 62 -10 62 -9 0 -16 6 -16 14 0 7 -10 16 -22 20 -33 9 -158 15 -190 9z"></path><path id="pNSHLUb8H" d="M5080 3674 c0 -15 6 -24 15 -24 8 0 15 -4 15 -10 0 -5 7 -10 15 -10 8 0 15 -4 15 -10 0 -5 9 -10 20 -10 11 0 20 -7 20 -15 0 -9 9 -15 25 -15 17 0 25 -5 25 -18 0 -20 59 -82 78 -82 7 0 12 -6 12 -14 0 -8 14 -26 30 -39 17 -14 30 -30 30 -36 0 -6 6 -11 13 -11 11 0 31 -59 44 -132 7 -37 43 -39 43 -3 0 14 -4 25 -8 25 -5 0 -9 13 -9 28 0 76 -109 213 -261 327 -100 75 -122 84 -122 49z"></path><path id="pTcHsGHl8" d="M5440 3670 c0 -27 3 -30 30 -30 27 0 29 2 19 19 -7 10 -20 23 -30 30 -17 10 -19 8 -19 -19z"></path><path id="pwVNNq8Nx" d="M4807 3636 c-63 -26 -97 -51 -97 -72 0 -7 -6 -14 -12 -16 -9 -3 -13 -29 -13 -83 0 -54 4 -80 13 -82 6 -3 12 -13 12 -24 0 -12 7 -19 19 -19 13 0 21 -8 23 -22 2 -18 11 -24 36 -26 18 -2 32 -9 32 -16 0 -8 18 -16 46 -20 98 -13 204 -3 204 20 0 9 11 14 30 14 25 0 30 4 30 25 0 20 5 25 24 25 26 0 46 39 46 91 0 46 -24 34 -43 -21 -21 -59 -78 -107 -139 -116 -21 -4 -40 -10 -43 -14 -2 -4 -24 -3 -47 3 -24 5 -59 14 -79 19 -80 18 -153 130 -128 195 49 129 280 167 392 64 16 -14 35 -38 43 -53 20 -38 34 -35 34 7 0 19 -4 35 -9 35 -5 0 -11 9 -14 20 -4 15 -14 20 -36 20 -24 0 -31 4 -31 20 0 15 -12 23 -52 35 -78 23 -172 19 -241 -9z"></path><path id="pTSNXwZHm" d="M3374 3618 c-65 -70 -137 -216 -149 -300 -3 -22 1 -28 15 -28 18 0 40 61 40 114 0 16 6 26 14 26 15 0 26 21 26 51 0 10 7 19 15 19 8 0 15 7 15 15 0 8 5 15 10 15 6 0 10 5 10 11 0 7 7 17 16 23 10 8 14 23 12 45 l-3 33 -21 -24z"></path><path id="paNLZIq5R" d="M5310 3635 c0 -2 29 -27 64 -55 69 -55 115 -115 143 -189 9 -25 21 -49 26 -52 5 -4 6 -12 2 -19 -5 -8 -3 -11 6 -8 33 11 -12 188 -47 188 -8 0 -14 9 -14 20 0 16 -7 20 -30 20 -27 0 -30 3 -30 30 0 20 -6 33 -17 37 -10 4 -22 12 -26 20 -7 12 -77 19 -77 8z"></path><path id="pT2D0lIDN" d="M5510 3596 c0 -20 5 -36 10 -36 6 0 10 -7 10 -15 0 -10 10 -15 30 -15 l31 0 -31 44 c-41 60 -50 64 -50 22z"></path><path id="pso09kCnO" d="M4200 3539 c5 -18 5 -40 -1 -55 -12 -34 -12 -34 16 -34 24 0 25 3 25 60 0 57 -1 60 -24 60 -23 0 -24 -2 -16 -31z"></path><path id="pNPPlid04" d="M5580 3490 c0 -29 24 -88 40 -100 3 -3 15 -51 26 -107 15 -84 22 -103 36 -103 13 0 18 8 18 25 0 14 -3 25 -7 25 -5 0 -9 18 -9 40 -2 51 -40 174 -59 194 -9 8 -15 17 -15 18 1 2 -2 11 -5 21 -11 27 -25 20 -25 -13z"></path><path id="pS2OF7QU4" d="M4250 3459 c0 -19 4 -21 32 -15 26 5 37 1 60 -21 26 -25 27 -28 11 -45 -9 -10 -22 -18 -30 -18 -7 0 -13 -4 -13 -10 0 -19 -29 -6 -71 33 -18 16 -19 16 -19 -18 0 -30 3 -35 24 -35 58 0 86 -12 86 -36 0 -24 0 -24 28 -7 15 10 29 20 32 23 7 7 26 12 89 21 54 8 121 0 174 -20 25 -10 27 -9 27 14 0 20 -7 25 -54 36 -30 6 -91 10 -139 7 l-85 -4 -5 39 c-8 59 -30 77 -94 77 -47 0 -53 -2 -53 -21z"></path><path id="pGivj7bQQ" d="M3470 3361 c-15 -29 -42 -150 -35 -161 16 -25 31 -4 48 63 19 82 22 117 7 117 -5 0 -14 -9 -20 -19z"></path><path id="pWVpgeyvQ" d="M5238 3363 c-10 -2 -18 -11 -18 -19 0 -8 -7 -14 -16 -14 -14 0 -16 -8 -10 -57 8 -68 23 -83 83 -83 38 0 43 3 43 23 0 20 -4 23 -33 19 -23 -3 -38 2 -51 17 -37 40 10 89 75 79 20 -2 24 -9 24 -41 0 -32 3 -37 23 -37 19 0 22 5 22 45 0 38 -3 45 -20 45 -11 0 -20 7 -20 15 0 11 -11 15 -42 14 -24 -1 -51 -3 -60 -6z"></path><path id="p273RB6Bm" d="M3560 3305 c0 -24 5 -35 15 -35 9 0 15 -9 15 -25 0 -22 4 -25 37 -25 l37 0 -31 33 c-18 17 -35 44 -38 60 -10 40 -35 35 -35 -8z"></path><path id="pL4U8Lc0T" d="M5550 3288 c0 -30 13 -58 26 -58 9 0 14 12 14 35 0 28 -4 35 -20 35 -11 0 -20 -6 -20 -12z"></path><path id="pM2V1smj8" d="M743 3250 c0 -25 2 -35 4 -22 2 12 2 32 0 45 -2 12 -4 2 -4 -23z"></path><path id="p12LRK3JxQ" d="M3204 3233 c-16 -86 38 -267 113 -381 51 -78 153 -178 239 -234 95 -64 104 -66 104 -34 0 21 -5 26 -25 26 -16 0 -25 6 -25 15 0 8 -7 15 -15 15 -8 0 -15 5 -15 10 0 6 -9 10 -20 10 -11 0 -20 7 -20 15 0 9 -9 15 -24 15 -18 0 -25 6 -28 23 -2 17 -11 23 -35 25 -29 3 -33 7 -33 33 0 22 -5 29 -20 29 -15 0 -20 7 -20 25 0 16 -6 25 -15 25 -8 0 -15 9 -15 19 0 11 -6 26 -14 33 -7 8 -17 24 -20 36 -4 12 -14 22 -22 22 -9 0 -14 10 -14 28 0 16 -9 55 -20 87 -12 36 -20 84 -20 127 0 53 -3 68 -15 68 -8 0 -17 -14 -21 -37z"></path><path id="pkn0dgDUn" d="M3083 3200 c0 -30 2 -43 4 -27 2 15 2 39 0 55 -2 15 -4 2 -4 -28z"></path><path id="pg4HAAl9R" d="M4140 3235 c0 -8 6 -15 13 -15 8 0 22 -9 32 -20 22 -24 13 -70 -15 -77 -11 -3 -20 -9 -20 -14 0 -5 -11 -3 -25 3 -26 12 -41 47 -31 73 4 11 -2 15 -21 15 -25 0 -25 -2 -20 -46 2 -26 11 -50 18 -55 10 -6 4 -9 -18 -9 -38 0 -43 -12 -10 -27 133 -59 161 -88 161 -168 0 -68 -24 -101 -99 -136 -33 -16 -66 -29 -72 -29 -7 0 -13 -7 -13 -15 0 -22 52 -19 111 6 34 15 49 27 49 40 0 12 7 19 20 19 13 0 20 7 20 20 0 11 5 20 10 20 6 0 10 32 10 75 0 43 -4 75 -10 75 -5 0 -10 9 -10 20 0 13 -7 20 -20 20 -13 0 -20 7 -20 20 0 15 -7 20 -25 20 -16 0 -25 6 -25 15 0 10 10 15 30 15 20 0 30 5 30 15 0 9 9 15 21 15 20 0 21 3 15 62 -4 34 -10 66 -12 70 -3 4 -21 8 -40 8 -24 0 -34 -5 -34 -15z"></path><path id="pW6GXH2qf" d="M4272 3173 c2 -48 8 -78 16 -81 7 -2 12 -10 12 -18 0 -8 9 -14 20 -14 13 0 20 -7 20 -20 0 -16 7 -20 35 -20 44 0 44 9 1 37 -19 12 -43 42 -56 69 -20 40 -22 53 -13 86 10 37 9 38 -14 38 -25 0 -25 -1 -21 -77z"></path><path id="pHesTfX3R" d="M5558 3142 c-3 -56 -12 -94 -31 -136 -15 -32 -27 -60 -27 -62 0 -2 11 -4 24 -4 24 0 36 16 36 50 0 10 4 20 9 22 11 3 31 114 31 171 0 30 -4 37 -19 37 -16 0 -19 -10 -23 -78z"></path><path id="p17kI8JVw2" d="M5000 3203 c-45 -7 -90 -24 -90 -34 0 -5 -7 -9 -15 -9 -8 0 -15 -7 -15 -15 0 -8 -7 -15 -15 -15 -9 0 -18 -12 -21 -30 -4 -16 -10 -30 -15 -30 -5 0 -9 -29 -9 -65 0 -62 1 -65 24 -65 22 0 23 2 13 39 -16 57 22 126 89 160 27 15 51 28 54 31 7 7 120 6 120 -1 0 -4 12 -10 27 -14 46 -11 114 -57 134 -89 14 -23 18 -41 13 -68 -5 -34 -4 -38 17 -38 21 0 21 3 15 53 -3 28 -6 60 -6 70 0 11 -8 17 -25 17 -20 0 -25 5 -25 24 0 25 -16 36 -56 36 -14 0 -24 6 -24 14 0 25 -113 42 -190 29z"></path><path id="p19RnVfTxw" d="M4765 3180 c4 -7 4 -15 -1 -19 -5 -3 -18 -24 -29 -46 -25 -50 -71 -81 -141 -95 -38 -8 -54 -16 -54 -27 0 -13 9 -15 57 -10 32 3 59 11 61 17 2 5 15 10 28 10 20 0 24 5 24 30 0 26 3 30 29 30 25 0 31 6 41 35 14 42 10 77 -9 83 -9 3 -11 0 -6 -8z"></path><path id="p15a6rPilJ" d="M5440 3125 c0 -49 23 -64 34 -22 12 44 7 67 -14 67 -17 0 -20 -7 -20 -45z"></path><path id="pGEOwQgnA" d="M3600 3135 c0 -9 -9 -15 -25 -15 -16 0 -25 -6 -25 -15 0 -8 -4 -15 -10 -15 -5 0 -10 -20 -10 -45 0 -25 5 -45 10 -45 6 0 10 -7 10 -15 0 -11 11 -15 39 -15 59 0 141 21 141 37 0 7 5 13 10 13 11 0 14 59 4 84 -3 9 -10 16 -16 16 -5 0 -16 7 -24 15 -9 9 -34 15 -60 15 -32 0 -44 -4 -44 -15z m108 -77 c3 -23 -2 -28 -35 -37 -21 -6 -44 -11 -50 -11 -7 0 -13 -5 -13 -10 0 -16 -38 12 -43 32 -6 21 27 66 57 78 31 12 80 -19 84 -52z"></path><path id="pzuteWpwV" d="M5660 3110 c0 -45 23 -57 34 -17 11 41 7 57 -14 57 -17 0 -20 -7 -20 -40z"></path><path id="pv6VpOfz5" d="M3430 3128 c1 -52 44 -158 89 -217 25 -33 136 -121 153 -121 5 0 19 -9 31 -21 36 -34 86 -64 177 -103 47 -20 93 -47 103 -59 18 -21 18 -22 -5 -41 -15 -12 -19 -20 -10 -23 17 -6 15 -43 -3 -43 -8 0 -15 -5 -15 -10 0 -13 -73 -2 -78 11 -2 5 -15 9 -28 9 -13 0 -24 4 -24 8 0 13 -48 32 -80 32 -17 0 -30 -5 -30 -11 0 -18 221 -109 265 -109 10 0 15 10 15 28 1 15 14 42 31 62 16 19 25 36 19 38 -5 2 -10 19 -10 38 0 27 -4 34 -20 34 -13 0 -20 7 -20 19 0 12 -13 24 -37 34 l-38 15 33 1 c19 1 32 6 32 14 0 14 -67 40 -82 31 -4 -3 -8 -2 -8 3 0 4 -14 14 -31 22 -48 21 -89 85 -89 139 0 40 5 50 45 90 25 24 45 46 45 48 0 2 -15 4 -33 4 -57 0 -97 -60 -97 -146 0 -32 4 -44 15 -44 10 0 15 -11 15 -35 0 -31 3 -35 25 -35 20 0 25 -5 25 -24 0 -18 7 -26 23 -29 19 -4 18 -4 -5 -6 -16 0 -28 4 -28 10 0 20 -33 38 -67 39 -28 0 -33 4 -33 24 0 26 -16 36 -61 36 -23 0 -29 4 -29 23 0 22 -49 77 -68 77 -5 0 -12 14 -15 30 -4 18 -13 30 -22 30 -8 0 -15 9 -15 19 0 11 -5 42 -12 70 -9 38 -16 51 -30 51 -10 0 -18 -6 -18 -12z m465 -418 c17 -7 15 -9 -12 -9 -18 -1 -33 4 -33 9 0 12 17 12 45 0z"></path><path id="p16QdLVCHC" d="M3320 3106 c0 -37 22 -126 32 -126 4 0 8 -13 8 -30 0 -16 5 -30 10 -30 6 0 10 -9 10 -20 0 -11 7 -20 15 -20 8 0 15 -9 15 -20 0 -16 7 -20 31 -20 l31 0 -24 33 c-39 50 -64 106 -83 185 -11 46 -22 72 -31 72 -8 0 -14 -10 -14 -24z"></path><path id="pZl2eB9kW" d="M3880 3070 c0 -13 7 -20 20 -20 11 0 20 5 20 10 0 6 7 10 16 10 8 0 12 5 9 10 -3 6 -19 10 -36 10 -22 0 -29 -5 -29 -20z"></path><path id="p3DHxce3D" d="M5410 3030 c-7 -22 -17 -40 -22 -40 -4 0 -8 -9 -8 -20 0 -11 -7 -20 -15 -20 -9 0 -15 -9 -15 -25 0 -20 -5 -25 -25 -25 -20 0 -25 5 -25 25 0 33 -5 32 -42 -11 -53 -61 -156 -94 -236 -76 -40 9 -42 9 -42 -14 0 -23 2 -24 78 -24 88 0 152 15 152 34 0 8 14 15 35 18 19 2 35 0 35 -4 0 -4 -11 -8 -25 -8 -18 0 -25 -5 -25 -20 0 -15 -7 -20 -25 -20 -16 0 -25 -6 -25 -15 0 -8 -9 -15 -19 -15 -11 0 -26 -6 -33 -13 -7 -7 -28 -19 -45 -26 -18 -7 -33 -20 -33 -27 0 -8 -10 -14 -22 -14 -13 0 -42 -8 -65 -17 -32 -14 -43 -24 -43 -40 0 -20 2 -21 33 -11 17 6 35 16 39 22 4 6 8 7 8 3 0 -18 172 83 262 155 87 69 179 169 170 185 -2 3 0 9 6 12 5 3 14 21 20 39 10 30 10 32 -12 32 -18 0 -26 -9 -36 -40z"></path><path id="pt4AQYUl6" d="M5610 2970 c-14 -33 -28 -60 -32 -60 -5 0 -8 -7 -8 -15 0 -8 -4 -15 -10 -15 -5 0 -10 -11 -10 -24 0 -18 -6 -25 -22 -28 -18 -2 -24 -11 -26 -35 -2 -18 1 -33 7 -33 16 0 99 110 131 174 34 68 38 96 13 96 -12 0 -26 -19 -43 -60z"></path><path id="p1A5wN7cZI" d="M4440 3000 c0 -17 7 -20 40 -20 45 0 57 23 18 34 -42 11 -58 7 -58 -14z"></path><path id="pXhysMXJP" d="M4350 2943 c-27 -12 -40 -31 -40 -62 0 -38 25 -42 34 -6 7 26 43 42 72 31 9 -3 21 -20 27 -36 15 -41 37 -39 37 3 0 49 -19 68 -71 73 -24 2 -51 1 -59 -3z"></path><path id="p16enD4Vzq" d="M4570 2905 c0 -19 5 -35 10 -35 6 0 10 7 10 15 0 8 11 17 25 21 39 10 31 34 -10 34 -33 0 -35 -2 -35 -35z"></path><path id="pj9JOqyJR" d="M4670 2926 c0 -8 12 -17 28 -21 15 -3 44 -17 65 -31 l37 -24 0 30 c0 27 -3 30 -30 30 -20 0 -30 5 -30 15 0 10 -11 15 -35 15 -23 0 -35 -5 -35 -14z"></path><path id="pYgoMWE7m" d="M743 2895 c0 -22 2 -30 4 -17 2 12 2 30 0 40 -3 9 -5 -1 -4 -23z"></path><path id="pJzNiGjya" d="M4872 2892 c3 -35 5 -37 41 -40 21 -2 37 1 37 7 0 6 -3 11 -8 11 -4 0 -22 13 -40 30 l-33 30 3 -38z"></path><path id="p8FLLys5S" d="M5432 2845 l-33 -40 27 -3 c35 -5 46 8 42 49 l-3 34 -33 -40z"></path><path id="palxno0Pk" d="M4560 2828 c0 -47 10 -78 26 -78 7 0 14 -12 16 -27 2 -20 9 -29 26 -31 12 -2 22 -10 22 -18 0 -9 11 -14 30 -14 17 0 30 -4 30 -10 0 -5 16 -10 35 -10 24 0 35 5 35 15 0 8 -8 16 -17 17 -32 2 -38 4 -69 21 -45 23 -82 72 -95 123 -14 53 -39 60 -39 12z"></path><path id="phtcR3yEH" d="M4340 2809 c0 -26 3 -29 35 -29 45 0 45 20 0 41 l-35 16 0 -28z"></path><path id="p14YbYT6Ko" d="M4826 2803 c4 -10 10 -41 12 -70 4 -49 2 -53 -22 -59 -39 -10 -33 -34 9 -34 24 0 35 5 35 15 0 8 5 15 10 15 11 0 13 71 4 119 -5 25 -12 31 -31 31 -20 0 -24 -3 -17 -17z"></path><path id="p88LgwWJ5" d="M3500 2780 c0 -23 4 -30 20 -30 11 0 20 -7 20 -15 0 -8 7 -15 15 -15 8 0 15 -4 15 -10 0 -5 11 -12 25 -16 14 -3 25 -10 25 -15 0 -5 6 -9 14 -9 8 0 16 -7 20 -15 3 -8 12 -15 21 -15 8 0 15 -4 15 -10 0 -5 14 -10 30 -10 23 0 30 -5 30 -19 0 -13 16 -25 51 -40 54 -24 100 -25 107 -2 3 10 0 12 -11 8 -9 -3 -17 -3 -19 1 -2 4 -32 22 -68 40 -36 18 -120 71 -187 117 l-123 85 0 -30z"></path><path id="pGip26sOW" d="M5272 2711 c-63 -43 -148 -95 -190 -116 -81 -40 -201 -85 -227 -85 -8 0 -15 -5 -15 -11 0 -6 -7 -8 -16 -5 -10 4 -14 1 -11 -6 5 -16 100 -14 105 1 2 6 13 11 25 11 38 0 67 12 67 26 0 9 12 14 34 14 19 0 41 6 48 13 7 8 25 17 40 20 15 4 33 13 40 21 8 7 24 17 36 20 13 4 22 16 22 27 0 14 7 19 30 19 19 0 30 5 30 14 0 7 14 16 30 20 18 3 30 12 30 21 0 8 9 15 20 15 16 0 20 7 20 30 0 17 -1 30 -2 29 -2 0 -54 -36 -116 -78z"></path><path id="pZTNiNcnv" d="M4208 2733 c-32 -8 -58 -19 -58 -24 0 -5 -7 -9 -15 -9 -8 0 -15 -7 -15 -15 0 -8 -6 -15 -13 -15 -24 0 -47 -35 -47 -71 l1 -34 53 57 c41 44 64 60 100 70 25 7 46 16 46 21 0 5 7 6 16 3 23 -9 64 4 64 20 0 18 -56 17 -132 -3z"></path><path id="p1EKwMXiw8" d="M5393 2700 c-3 -11 -14 -20 -24 -20 -11 0 -22 -7 -25 -15 -4 -8 -12 -15 -20 -15 -8 0 -14 -9 -14 -20 0 -16 -7 -20 -30 -20 -26 0 -30 -4 -30 -26 0 -19 4 -25 15 -20 25 9 127 81 170 120 l40 35 -38 1 c-31 0 -40 -4 -44 -20z"></path><path id="paFByhgRC" d="M4513 2676 c3 -8 -10 -34 -28 -58 -32 -40 -33 -43 -14 -46 31 -5 49 5 49 28 0 11 7 20 15 20 10 0 15 11 15 35 0 29 -4 35 -21 35 -14 0 -19 -5 -16 -14z"></path><path id="p1GQDslcDb" d="M4808 2623 c-20 -3 -28 -10 -28 -24 0 -22 14 -23 76 -8 53 14 61 40 12 38 -18 -1 -45 -4 -60 -6z"></path><path id="pMSQ5dig7" d="M4638 2587 c-57 -9 -68 -13 -68 -30 0 -17 5 -19 48 -13 105 15 152 28 152 42 0 16 -29 16 -132 1z"></path><path id="p4TKwMZSk" d="M4460 2535 c0 -18 -5 -25 -20 -25 -12 0 -20 7 -20 16 0 14 -2 15 -17 3 -36 -30 -93 -112 -93 -135 0 -22 4 -24 50 -24 43 0 50 3 50 20 0 15 -7 20 -25 20 -16 0 -25 6 -25 15 0 8 5 15 12 15 6 0 20 7 30 17 17 15 18 15 18 -5 0 -18 6 -22 35 -22 24 0 35 5 35 15 0 8 -7 15 -15 15 -29 0 -16 40 20 61 19 12 35 25 35 30 0 5 -16 9 -35 9 -31 0 -35 -3 -35 -25z"></path><path id="pgbJsNdUj" d="M5152 2551 c-8 -4 -12 -18 -10 -30 l3 -21 43 21 c23 12 42 25 42 30 0 11 -61 12 -78 0z"></path><path id="p11MfNDbgf" d="M5038 2503 c-10 -2 -18 -9 -18 -14 0 -5 -13 -9 -30 -9 -16 0 -30 -4 -30 -9 0 -4 -19 -11 -42 -15 -118 -17 -118 -18 -118 -38 0 -18 4 -20 48 -13 26 4 49 10 52 13 3 4 10 7 15 8 54 2 196 53 203 72 4 12 -42 15 -80 5z"></path><path id="p1Dsy83c55" d="M4750 2485 c-8 -2 -32 -6 -52 -10 -49 -8 -53 -35 -5 -35 68 0 107 12 107 31 0 18 -12 21 -50 14z"></path><path id="pDSp9wTlm" d="M4535 2460 c-4 -6 -11 -8 -16 -5 -5 4 -9 -1 -9 -9 0 -12 11 -16 45 -16 38 0 45 3 45 20 0 15 -7 20 -29 20 -17 0 -33 -5 -36 -10z"></path><path id="p5Us4haYQ" d="M4690 2400 c0 -13 7 -20 20 -20 11 0 20 5 20 10 0 6 7 10 16 10 8 0 12 5 9 10 -3 6 -19 10 -36 10 -22 0 -29 -5 -29 -20z"></path><path id="p1FCuGstzB" d="M4520 2390 c0 -17 7 -20 53 -20 66 0 97 9 97 26 0 11 -18 14 -75 14 -68 0 -75 -2 -75 -20z"></path><path id="pp3e59xsW" d="M5023 2235 c0 -33 2 -45 4 -27 2 18 2 45 0 60 -2 15 -4 0 -4 -33z"></path><path id="pcdzJlzcj" d="M4353 2243 c9 -2 25 -2 35 0 9 3 1 5 -18 5 -19 0 -27 -2 -17 -5z"></path><path id="pY2aRpsz" d="M4578 2053 c17 -2 47 -2 65 0 17 2 3 4 -33 4 -36 0 -50 -2 -32 -4z"></path><path id="pJX7lhcPL" d="M3625 1758 l-50 -53 53 50 c28 27 52 51 52 52 0 8 -9 -1 -55 -49z"></path><path id="p1GHYArhg2" d="M4613 1723 c15 -2 39 -2 55 0 15 2 2 4 -28 4 -30 0 -43 -2 -27 -4z"></path><path id="p19TuFtGxk" d="M4194 1528 l-29 -33 33 29 c17 17 32 31 32 33 0 8 -8 1 -36 -29z"></path><path id="p16fWINUo0" d="M1863 1433 c9 -2 25 -2 35 0 9 3 1 5 -18 5 -19 0 -27 -2 -17 -5z"></path><path id="p1BvcLw52g" d="M1943 1433 c9 -2 25 -2 35 0 9 3 1 5 -18 5 -19 0 -27 -2 -17 -5z"></path><path id="pWItK9qjZ" d="M5119 1203 l-34 -38 38 34 c20 19 37 36 37 38 0 8 -8 0 -41 -34z"></path><path id="pzVlP4S3S" d="M3153 593 c31 -2 83 -2 115 0 31 2 5 3 -58 3 -63 0 -89 -1 -57 -3z"></path><path id="pHmwW7tKw" d="M3133 403 c37 -2 97 -2 135 0 37 2 6 3 -68 3 -74 0 -105 -1 -67 -3z"></path></g></g><g id="l7ZCTsrw471QjgXrs6TQdib" fill="rgb(228,204,157)" style="transform: none;"><g><path id="pRnzz5VPP" d="M4399 4036 c-3 -3 -32 -6 -65 -7 -32 -1 -95 -8 -139 -16 -44 -7 -93 -16 -108 -18 -55 -9 -150 -37 -245 -71 -329 -119 -578 -367 -616 -611 -1 -7 -5 -16 -9 -19 -4 -4 -7 -49 -7 -99 0 -273 195 -523 528 -677 68 -31 221 -88 237 -88 1 0 5 13 8 28 3 16 43 70 92 125 70 78 94 99 128 109 23 6 47 15 52 19 6 4 56 7 112 8 98 2 104 1 128 -23 14 -14 25 -29 25 -34 0 -4 -41 -53 -91 -108 -90 -99 -129 -157 -115 -171 12 -12 395 -6 410 7 8 5 22 9 32 8 23 -3 125 12 139 20 6 4 19 8 30 9 110 16 337 125 463 223 224 174 327 373 302 585 -13 110 -66 247 -129 335 -83 116 -330 310 -394 310 -9 0 -17 4 -17 9 0 17 -258 100 -325 105 -11 1 -24 4 -30 7 -11 7 -131 21 -215 25 -30 2 -82 6 -115 9 -33 4 -63 4 -66 1z m296 -161 c83 -19 166 -37 185 -40 19 -3 49 -8 65 -11 17 -3 37 -7 45 -8 44 -9 151 -56 210 -94 123 -79 273 -224 305 -295 33 -75 38 -90 41 -112 1 -11 7 -47 12 -79 17 -107 -3 -195 -71 -310 -57 -99 -104 -146 -233 -231 -117 -78 -238 -139 -334 -169 -30 -9 -63 -22 -73 -27 -11 -6 -21 -8 -24 -6 -2 3 -19 1 -36 -4 -26 -8 -140 -21 -262 -30 -42 -3 -75 1 -75 10 0 6 10 22 23 36 19 23 36 28 131 41 145 20 302 58 370 89 30 14 58 25 61 25 17 0 157 89 220 139 105 83 149 133 184 206 29 59 32 77 33 158 3 183 -27 242 -204 403 -113 103 -224 162 -332 178 -17 3 -61 11 -98 19 -37 8 -70 12 -73 9 -2 -3 -10 0 -17 5 -16 13 -137 38 -161 34 -10 -1 -24 3 -32 9 -13 11 -238 9 -310 -2 -38 -7 -148 -36 -178 -48 -33 -13 -61 -23 -72 -25 -149 -36 -225 -72 -315 -152 -31 -26 -74 -63 -97 -81 -145 -114 -193 -384 -97 -548 32 -54 98 -119 154 -152 25 -14 47 -29 50 -32 21 -24 119 -82 185 -109 113 -47 157 -93 102 -106 -69 -18 -137 11 -320 135 -144 97 -225 174 -256 244 -85 187 -59 410 66 563 41 50 175 164 253 216 53 35 262 115 415 159 154 44 345 41 560 -7z m-95 -145 c98 -19 115 -63 53 -138 -49 -59 -100 -82 -188 -82 -77 0 -115 17 -115 51 0 55 82 152 138 165 15 3 32 7 37 9 17 6 20 5 75 -5z m-493 -91 c144 -89 130 -231 -17 -167 -62 27 -129 114 -121 158 7 44 74 48 138 9z m944 -36 c56 -25 105 -74 114 -114 16 -73 -28 -151 -102 -181 -76 -31 -97 -34 -158 -22 -100 18 -149 53 -180 128 -33 78 8 149 110 192 71 29 145 28 216 -3z m-1118 -121 c97 -43 128 -146 66 -217 -47 -53 -110 -78 -195 -78 -62 0 -77 4 -126 33 -65 39 -88 73 -88 130 0 141 173 207 343 132z m416 -58 c28 -35 27 -40 -11 -61 -35 -18 -50 -22 -58 -13 -3 3 -14 10 -25 16 -29 16 -26 55 5 71 39 20 67 15 89 -13z m271 -100 c37 -11 68 -29 97 -58 24 -24 40 -45 37 -48 -3 -4 -1 -15 5 -26 13 -24 -14 -85 -56 -124 -89 -83 -287 -73 -363 20 -56 68 -52 134 10 193 60 58 165 74 270 43z m711 -3 c20 -16 22 -22 12 -44 -19 -40 -58 -62 -88 -49 -47 22 -42 82 10 102 31 13 41 12 66 -9z m-1141 -120 c17 -33 11 -59 -18 -80 -24 -16 -32 -18 -52 -8 -35 18 -43 51 -19 81 25 32 73 35 89 7z m987 -55 c84 -38 118 -75 118 -129 -1 -104 -85 -176 -214 -184 -60 -3 -72 -1 -126 29 -42 23 -66 45 -82 73 -51 90 -16 162 112 232 36 19 125 9 192 -21z m-1496 -43 c54 -32 45 -76 -18 -88 -21 -4 -43 -11 -50 -17 -8 -6 -18 -3 -32 11 -32 32 -24 57 29 94 30 21 35 21 71 0z m384 -48 c84 -23 145 -90 145 -161 0 -57 -33 -103 -100 -137 -48 -25 -63 -28 -120 -24 -77 6 -85 8 -126 30 -70 37 -114 121 -94 181 13 42 41 68 105 98 52 25 128 30 190 13z m380 -179 c12 -35 -3 -60 -39 -64 -60 -7 -89 69 -37 94 32 16 64 3 76 -30z m300 11 c71 -40 122 -146 95 -197 -10 -18 -19 -21 -63 -19 -79 5 -131 37 -166 104 -20 38 -29 114 -14 128 16 16 109 6 148 -16z"></path></g></g></svg>